<?xml version="1.0" encoding="UTF-8" standalone="no"?>
<!DOCTYPE svg PUBLIC "-//W3C//DTD SVG 1.1//EN"
 "http://www.w3.org/Graphics/SVG/1.1/DTD/svg11.dtd">
<!-- Generated by graphviz version 13.1.2 (20250808.2320)
 -->
<!-- Title: SovereignCloud Pages: 1 -->
<svg width="579pt" height="763pt"
 viewBox="0.00 0.00 579.00 763.00" xmlns="http://www.w3.org/2000/svg" xmlns:xlink="http://www.w3.org/1999/xlink">
<g id="graph0" class="graph" transform="scale(1 1) rotate(0) translate(28.8 734.1)">
<title>SovereignCloud</title>
<polygon fill="white" stroke="none" points="-28.8,28.8 -28.8,-734.1 549.8,-734.1 549.8,28.8 -28.8,28.8"/>
<g id="clust1" class="cluster">
<title>cluster_sovereign</title>
<path fill="#fafafa" stroke="#cc0000" stroke-width="2.5" stroke-dasharray="5,2" d="M20,-8C20,-8 501,-8 501,-8 507,-8 513,-14 513,-20 513,-20 513,-685.3 513,-685.3 513,-691.3 507,-697.3 501,-697.3 501,-697.3 20,-697.3 20,-697.3 14,-697.3 8,-691.3 8,-685.3 8,-685.3 8,-20 8,-20 8,-14 14,-8 20,-8"/>
<text xml:space="preserve" text-anchor="start" x="178" y="-681" font-family="Helvetica,Arial,sans-serif" font-weight="bold" font-size="14.00" fill="#cc0000">SOVEREIGN PERIMETER</text>
<text xml:space="preserve" text-anchor="start" x="153.62" y="-670.8" font-family="Helvetica,Arial,sans-serif" font-style="italic" font-size="10.00" fill="#cc0000">All components run on&#45;premise — no data leaves</text>
</g>
<g id="clust3" class="cluster">
<title>cluster_sps</title>
<path fill="#f0f0ff" stroke="#4444cc" stroke-width="1.5" d="M28,-199C28,-199 136,-199 136,-199 142,-199 148,-205 148,-211 148,-211 148,-445.65 148,-445.65 148,-451.65 142,-457.65 136,-457.65 136,-457.65 28,-457.65 28,-457.65 22,-457.65 16,-451.65 16,-445.65 16,-445.65 16,-211 16,-211 16,-205 22,-199 28,-199"/>
<text xml:space="preserve" text-anchor="start" x="35.5" y="-444.2" font-family="Helvetica,Arial,sans-serif" font-weight="bold" font-size="11.00" fill="#151515">Service Providers</text>
</g>
<g id="clust4" class="cluster">
<title>cluster_fleet</title>
<path fill="#fffff0" stroke="#b8860b" stroke-width="1.5" d="M198,-197.2C198,-197.2 324,-197.2 324,-197.2 330,-197.2 336,-203.2 336,-209.2 336,-209.2 336,-442.05 336,-442.05 336,-448.05 330,-454.05 324,-454.05 324,-454.05 198,-454.05 198,-454.05 192,-454.05 186,-448.05 186,-442.05 186,-442.05 186,-209.2 186,-209.2 186,-203.2 192,-197.2 198,-197.2"/>
<text xml:space="preserve" text-anchor="start" x="199.88" y="-440.6" font-family="Helvetica,Arial,sans-serif" font-weight="bold" font-size="11.00" fill="#151515">OpenShift Cluster Fleet</text>
</g>
<g id="clust5" class="cluster">
<title>cluster_costmgmt</title>
<path fill="#f0fff0" stroke="#228b22" stroke-width="2" d="M371,-109C371,-109 493,-109 493,-109 499,-109 505,-115 505,-121 505,-121 505,-454.8 505,-454.8 505,-460.8 499,-466.8 493,-466.8 493,-466.8 371,-466.8 371,-466.8 365,-466.8 359,-460.8 359,-454.8 359,-454.8 359,-121 359,-121 359,-115 365,-109 371,-109"/>
<text xml:space="preserve" text-anchor="start" x="375.38" y="-452.4" font-family="Helvetica,Arial,sans-serif" font-weight="bold" font-size="12.00" fill="#151515">Red Hat Lightspeed</text>
<text xml:space="preserve" text-anchor="start" x="381" y="-440.4" font-family="Helvetica,Arial,sans-serif" font-weight="bold" font-size="12.00" fill="#151515">cost management</text>
</g>
<!-- operator -->
<g id="node1" class="node">
<title>operator</title>
<path fill="#f0f0f0" stroke="#888888" stroke-width="1.5" d="M238.75,-657.3C238.75,-657.3 161.25,-657.3 161.25,-657.3 155.25,-657.3 149.25,-651.3 149.25,-645.3 149.25,-645.3 149.25,-633.3 149.25,-633.3 149.25,-627.3 155.25,-621.3 161.25,-621.3 161.25,-621.3 238.75,-621.3 238.75,-621.3 244.75,-621.3 250.75,-627.3 250.75,-633.3 250.75,-633.3 250.75,-645.3 250.75,-645.3 250.75,-651.3 244.75,-657.3 238.75,-657.3"/>
<text xml:space="preserve" text-anchor="middle" x="200" y="-634.48" font-family="Helvetica,Arial,sans-serif" font-size="11.00" fill="#151515">Platform Operator</text>
</g>
<!-- dcm -->
<g id="node3" class="node">
<title>dcm</title>
<path fill="lightgrey" stroke="none" stroke-width="1.5" d="M406.75,-576.3C406.75,-576.3 133.25,-576.3 133.25,-576.3 127.25,-576.3 121.25,-570.3 121.25,-564.3 121.25,-564.3 121.25,-509.8 121.25,-509.8 121.25,-503.8 127.25,-497.8 133.25,-497.8 133.25,-497.8 406.75,-497.8 406.75,-497.8 412.75,-497.8 418.75,-503.8 418.75,-509.8 418.75,-509.8 418.75,-564.3 418.75,-564.3 418.75,-570.3 412.75,-576.3 406.75,-576.3"/>
<text xml:space="preserve" text-anchor="start" x="219.75" y="-550.85" font-family="Helvetica,Arial,sans-serif" font-weight="bold" font-size="11.00">DCM Control Plane</text>
<polygon fill="#ee0000" stroke="none" points="129.25,-505.8 129.25,-533.05 227.75,-533.05 227.75,-505.8 129.25,-505.8"/>
<text xml:space="preserve" text-anchor="start" x="137.25" y="-515.6" font-family="Helvetica,Arial,sans-serif" font-weight="bold" font-size="11.00" fill="white">Service Catalog</text>
<polygon fill="#ee0000" stroke="none" points="235.75,-505.8 235.75,-533.05 323.75,-533.05 323.75,-505.8 235.75,-505.8"/>
<text xml:space="preserve" text-anchor="start" x="243.75" y="-515.6" font-family="Helvetica,Arial,sans-serif" font-weight="bold" font-size="11.00" fill="white">Policy Engine</text>
<polygon fill="#ee0000" stroke="none" points="331.75,-505.8 331.75,-533.05 410.75,-533.05 410.75,-505.8 331.75,-505.8"/>
<text xml:space="preserve" text-anchor="start" x="339.75" y="-515.6" font-family="Helvetica,Arial,sans-serif" font-weight="bold" font-size="11.00" fill="white">SP Manager</text>
</g>
<!-- operator&#45;&gt;dcm -->
<g id="edge8" class="edge">
<title>operator&#45;&gt;dcm</title>
<path fill="none" stroke="#555555" stroke-width="1.2" d="M212.19,-620.84C219.06,-611 228,-598.2 236.79,-585.61"/>
<polygon fill="#555555" stroke="#555555" stroke-width="1.2" points="239.55,-587.77 242.41,-577.56 233.81,-583.76 239.55,-587.77"/>
</g>
<!-- tenants -->
<g id="node2" class="node">
<title>tenants</title>
<path fill="#f0f0f0" stroke="#888888" stroke-width="1.5" d="M386.38,-657.3C386.38,-657.3 291.62,-657.3 291.62,-657.3 285.62,-657.3 279.62,-651.3 279.62,-645.3 279.62,-645.3 279.62,-633.3 279.62,-633.3 279.62,-627.3 285.62,-621.3 291.62,-621.3 291.62,-621.3 386.38,-621.3 386.38,-621.3 392.38,-621.3 398.38,-627.3 398.38,-633.3 398.38,-633.3 398.38,-645.3 398.38,-645.3 398.38,-651.3 392.38,-657.3 386.38,-657.3"/>
<text xml:space="preserve" text-anchor="middle" x="339" y="-634.48" font-family="Helvetica,Arial,sans-serif" font-size="11.00" fill="#151515">Tenants (self&#45;service)</text>
</g>
<!-- tenants&#45;&gt;dcm -->
<g id="edge9" class="edge">
<title>tenants&#45;&gt;dcm</title>
<path fill="none" stroke="#555555" stroke-width="1.2" d="M326.98,-620.84C320.21,-611 311.4,-598.2 302.73,-585.61"/>
<polygon fill="#555555" stroke="#555555" stroke-width="1.2" points="305.75,-583.82 297.2,-577.57 299.99,-587.79 305.75,-583.82"/>
</g>
<!-- cluster_sp -->
<g id="node4" class="node">
<title>cluster_sp</title>
<path fill="#4169e1" stroke="#2850a8" stroke-width="1.5" d="M127.6,-430.4C127.6,-430.4 36.4,-430.4 36.4,-430.4 30.4,-430.4 24.4,-424.4 24.4,-418.4 24.4,-418.4 24.4,-402.8 24.4,-402.8 24.4,-396.8 30.4,-390.8 36.4,-390.8 36.4,-390.8 127.6,-390.8 127.6,-390.8 133.6,-390.8 139.6,-396.8 139.6,-402.8 139.6,-402.8 139.6,-418.4 139.6,-418.4 139.6,-424.4 133.6,-430.4 127.6,-430.4"/>
<text xml:space="preserve" text-anchor="middle" x="82" y="-411.4" font-family="Helvetica,Arial,sans-serif" font-size="11.00" fill="white">Cluster SP</text>
<text xml:space="preserve" text-anchor="middle" x="82" y="-400.15" font-family="Helvetica,Arial,sans-serif" font-size="11.00" fill="white">(e.g. ACM)</text>
</g>
<!-- dcm&#45;&gt;cluster_sp -->
<g id="edge10" class="edge">
<title>dcm&#45;&gt;cluster_sp</title>
<path fill="none" stroke="#4444cc" stroke-width="1.2" d="M212.32,-497.87C195.08,-486.45 175.92,-473.77 157.7,-461.71"/>
<polygon fill="#4444cc" stroke="#4444cc" stroke-width="1.2" points="159.78,-458.89 149.51,-456.29 155.92,-464.73 159.78,-458.89"/>
</g>
<!-- c1 -->
<g id="node7" class="node">
<title>c1</title>
<path fill="#daa520" stroke="#b8860b" stroke-width="1.5" d="M316.8,-426.8C316.8,-426.8 223.2,-426.8 223.2,-426.8 217.8,-426.8 212.4,-421.4 212.4,-416 212.4,-416 212.4,-405.2 212.4,-405.2 212.4,-399.8 217.8,-394.4 223.2,-394.4 223.2,-394.4 316.8,-394.4 316.8,-394.4 322.2,-394.4 327.6,-399.8 327.6,-405.2 327.6,-405.2 327.6,-416 327.6,-416 327.6,-421.4 322.2,-426.8 316.8,-426.8"/>
<text xml:space="preserve" text-anchor="middle" x="270" y="-405.78" font-family="Helvetica,Arial,sans-serif" font-size="11.00" fill="white">Cluster A</text>
</g>
<!-- dcm&#45;&gt;c1 -->
<g id="edge11" class="edge">
<title>dcm&#45;&gt;c1</title>
<path fill="none" stroke="#b8860b" stroke-width="1.2" d="M270,-498.03C270,-487.82 270,-476.58 270,-465.68"/>
<polygon fill="#b8860b" stroke="#b8860b" stroke-width="1.2" points="273.5,-465.86 270,-455.86 266.5,-465.86 273.5,-465.86"/>
</g>
<!-- cost_sp -->
<g id="node10" class="node">
<title>cost_sp</title>
<path fill="#228b22" stroke="#1a6b1a" stroke-width="1.5" d="M486,-426.8C486,-426.8 378,-426.8 378,-426.8 372.6,-426.8 367.2,-421.4 367.2,-416 367.2,-416 367.2,-405.2 367.2,-405.2 367.2,-399.8 372.6,-394.4 378,-394.4 378,-394.4 486,-394.4 486,-394.4 491.4,-394.4 496.8,-399.8 496.8,-405.2 496.8,-405.2 496.8,-416 496.8,-416 496.8,-421.4 491.4,-426.8 486,-426.8"/>
<text xml:space="preserve" text-anchor="middle" x="432" y="-405.78" font-family="Helvetica,Arial,sans-serif" font-size="11.00" fill="white">Cost SP</text>
</g>
<!-- dcm&#45;&gt;cost_sp -->
<g id="edge12" class="edge">
<title>dcm&#45;&gt;cost_sp</title>
<path fill="none" stroke="#228b22" stroke-width="1.2" d="M319.49,-498.03C329.52,-490.33 340.31,-482.04 351.1,-473.75"/>
<polygon fill="#228b22" stroke="#228b22" stroke-width="1.2" points="352.91,-476.77 358.71,-467.9 348.65,-471.22 352.91,-476.77"/>
</g>
<!-- vm_sp -->
<g id="node5" class="node">
<title>vm_sp</title>
<path fill="#4169e1" stroke="#2850a8" stroke-width="1.5" d="M127.6,-325.8C127.6,-325.8 36.4,-325.8 36.4,-325.8 30.4,-325.8 24.4,-319.8 24.4,-313.8 24.4,-313.8 24.4,-298.2 24.4,-298.2 24.4,-292.2 30.4,-286.2 36.4,-286.2 36.4,-286.2 127.6,-286.2 127.6,-286.2 133.6,-286.2 139.6,-292.2 139.6,-298.2 139.6,-298.2 139.6,-313.8 139.6,-313.8 139.6,-319.8 133.6,-325.8 127.6,-325.8"/>
<text xml:space="preserve" text-anchor="middle" x="82" y="-306.8" font-family="Helvetica,Arial,sans-serif" font-size="11.00" fill="white">VM SP</text>
<text xml:space="preserve" text-anchor="middle" x="82" y="-295.55" font-family="Helvetica,Arial,sans-serif" font-size="11.00" fill="white">(e.g. OCP&#45;V)</text>
</g>
<!-- cluster_sp&#45;&gt;vm_sp -->
<!-- cluster_sp&#45;&gt;c1 -->
<g id="edge13" class="edge">
<title>cluster_sp&#45;&gt;c1</title>
<path fill="none" stroke="#888888" stroke-width="1.2" stroke-dasharray="5,2" d="M140.2,-410.6C159.13,-410.6 180.34,-410.6 200.04,-410.6"/>
<polygon fill="#888888" stroke="#888888" stroke-width="1.2" points="199.94,-414.1 209.94,-410.6 199.94,-407.1 199.94,-414.1"/>
<text xml:space="preserve" text-anchor="middle" x="176" y="-414.6" font-family="Helvetica,Arial,sans-serif" font-size="10.00" fill="#888888">provisions</text>
</g>
<!-- sp_more -->
<g id="node6" class="node">
<title>sp_more</title>
<path fill="#e0e0ff" stroke="#8888cc" stroke-width="1.5" stroke-dasharray="5,2" d="M130,-235.8C130,-235.8 34,-235.8 34,-235.8 29.2,-235.8 24.4,-231 24.4,-226.2 24.4,-226.2 24.4,-216.6 24.4,-216.6 24.4,-211.8 29.2,-207 34,-207 34,-207 130,-207 130,-207 134.8,-207 139.6,-211.8 139.6,-216.6 139.6,-216.6 139.6,-226.2 139.6,-226.2 139.6,-231 134.8,-235.8 130,-235.8"/>
<text xml:space="preserve" text-anchor="middle" x="82" y="-217.15" font-family="Helvetica,Arial,sans-serif" font-size="10.00" fill="#4444cc">More SPs...</text>
</g>
<!-- vm_sp&#45;&gt;sp_more -->
<!-- c2 -->
<g id="node8" class="node">
<title>c2</title>
<path fill="#daa520" stroke="#b8860b" stroke-width="1.5" d="M298.8,-322.2C298.8,-322.2 205.2,-322.2 205.2,-322.2 199.8,-322.2 194.4,-316.8 194.4,-311.4 194.4,-311.4 194.4,-300.6 194.4,-300.6 194.4,-295.2 199.8,-289.8 205.2,-289.8 205.2,-289.8 298.8,-289.8 298.8,-289.8 304.2,-289.8 309.6,-295.2 309.6,-300.6 309.6,-300.6 309.6,-311.4 309.6,-311.4 309.6,-316.8 304.2,-322.2 298.8,-322.2"/>
<text xml:space="preserve" text-anchor="middle" x="252" y="-301.18" font-family="Helvetica,Arial,sans-serif" font-size="11.00" fill="white">Cluster B</text>
</g>
<!-- c1&#45;&gt;c2 -->
<!-- costmodels -->
<g id="node11" class="node">
<title>costmodels</title>
<path fill="#2e8b57" stroke="#1a6b1a" stroke-width="1.5" d="M484.8,-325.8C484.8,-325.8 379.2,-325.8 379.2,-325.8 373.2,-325.8 367.2,-319.8 367.2,-313.8 367.2,-313.8 367.2,-298.2 367.2,-298.2 367.2,-292.2 373.2,-286.2 379.2,-286.2 379.2,-286.2 484.8,-286.2 484.8,-286.2 490.8,-286.2 496.8,-292.2 496.8,-298.2 496.8,-298.2 496.8,-313.8 496.8,-313.8 496.8,-319.8 490.8,-325.8 484.8,-325.8"/>
<text xml:space="preserve" text-anchor="middle" x="432" y="-306.8" font-family="Helvetica,Arial,sans-serif" font-size="11.00" fill="white">Cost Models</text>
<text xml:space="preserve" text-anchor="middle" x="432" y="-295.55" font-family="Helvetica,Arial,sans-serif" font-size="11.00" fill="white">&amp; Price Lists</text>
</g>
<!-- c1&#45;&gt;costmodels -->
<g id="edge14" class="edge">
<title>c1&#45;&gt;costmodels</title>
<path fill="none" stroke="#228b22" stroke-width="1.2" stroke-dasharray="5,2" d="M294.96,-393.79C320.63,-377.53 361.05,-351.94 391.35,-332.75"/>
<polygon fill="#228b22" stroke="#228b22" stroke-width="1.2" points="393.09,-335.79 399.66,-327.48 389.34,-329.87 393.09,-335.79"/>
<text xml:space="preserve" text-anchor="middle" x="383.14" y="-359.3" font-family="Helvetica,Arial,sans-serif" font-size="10.00" fill="#228b22"> metrics</text>
<text xml:space="preserve" text-anchor="middle" x="383.14" y="-348.8" font-family="Helvetica,Arial,sans-serif" font-size="10.00" fill="#228b22"> data </text>
</g>
<!-- cn -->
<g id="node9" class="node">
<title>cn</title>
<path fill="#daa520" stroke="#b8860b" stroke-width="1.5" d="M298.8,-237.6C298.8,-237.6 205.2,-237.6 205.2,-237.6 199.8,-237.6 194.4,-232.2 194.4,-226.8 194.4,-226.8 194.4,-216 194.4,-216 194.4,-210.6 199.8,-205.2 205.2,-205.2 205.2,-205.2 298.8,-205.2 298.8,-205.2 304.2,-205.2 309.6,-210.6 309.6,-216 309.6,-216 309.6,-226.8 309.6,-226.8 309.6,-232.2 304.2,-237.6 298.8,-237.6"/>
<text xml:space="preserve" text-anchor="middle" x="252" y="-216.58" font-family="Helvetica,Arial,sans-serif" font-size="11.00" fill="white">Cluster N</text>
</g>
<!-- c2&#45;&gt;cn -->
<!-- c2&#45;&gt;costmodels -->
<g id="edge15" class="edge">
<title>c2&#45;&gt;costmodels</title>
<path fill="none" stroke="#228b22" stroke-width="1.2" stroke-dasharray="5,2" d="M310.01,-306C325.07,-306 340.13,-306 355.2,-306"/>
<polygon fill="#228b22" stroke="#228b22" stroke-width="1.2" points="354.9,-309.5 364.9,-306 354.9,-302.5 354.9,-309.5"/>
</g>
<!-- cn&#45;&gt;costmodels -->
<g id="edge16" class="edge">
<title>cn&#45;&gt;costmodels</title>
<path fill="none" stroke="#228b22" stroke-width="1.2" stroke-dasharray="5,2" d="M286.69,-238.32C312.9,-250.34 349.32,-267.06 379.14,-280.74"/>
<polygon fill="#228b22" stroke="#228b22" stroke-width="1.2" points="377.6,-283.89 388.15,-284.88 380.52,-277.52 377.6,-283.89"/>
</g>
<!-- cost_sp&#45;&gt;costmodels -->
<g id="edge5" class="edge">
<title>cost_sp&#45;&gt;costmodels</title>
<path fill="none" stroke="#555555" stroke-width="1.2" d="M432,-394.02C432,-379.19 432,-356.46 432,-337.94"/>
<polygon fill="#555555" stroke="#555555" stroke-width="1.2" points="435.5,-338.05 432,-328.05 428.5,-338.05 435.5,-338.05"/>
</g>
<!-- distribution -->
<g id="node12" class="node">
<title>distribution</title>
<path fill="#2e8b57" stroke="#1a6b1a" stroke-width="1.5" d="M484.8,-241.2C484.8,-241.2 379.2,-241.2 379.2,-241.2 373.2,-241.2 367.2,-235.2 367.2,-229.2 367.2,-229.2 367.2,-213.6 367.2,-213.6 367.2,-207.6 373.2,-201.6 379.2,-201.6 379.2,-201.6 484.8,-201.6 484.8,-201.6 490.8,-201.6 496.8,-207.6 496.8,-213.6 496.8,-213.6 496.8,-229.2 496.8,-229.2 496.8,-235.2 490.8,-241.2 484.8,-241.2"/>
<text xml:space="preserve" text-anchor="middle" x="432" y="-222.2" font-family="Helvetica,Arial,sans-serif" font-size="11.00" fill="white">Overhead</text>
<text xml:space="preserve" text-anchor="middle" x="432" y="-210.95" font-family="Helvetica,Arial,sans-serif" font-size="11.00" fill="white">Distribution</text>
</g>
<!-- costmodels&#45;&gt;distribution -->
<g id="edge6" class="edge">
<title>costmodels&#45;&gt;distribution</title>
<path fill="none" stroke="#555555" stroke-width="1.2" d="M432,-285.84C432,-276.22 432,-264.31 432,-253.42"/>
<polygon fill="#555555" stroke="#555555" stroke-width="1.2" points="435.5,-253.56 432,-243.56 428.5,-253.56 435.5,-253.56"/>
</g>
<!-- reports -->
<g id="node13" class="node">
<title>reports</title>
<path fill="#2e8b57" stroke="#1a6b1a" stroke-width="1.5" d="M484.8,-156.6C484.8,-156.6 379.2,-156.6 379.2,-156.6 373.2,-156.6 367.2,-150.6 367.2,-144.6 367.2,-144.6 367.2,-129 367.2,-129 367.2,-123 373.2,-117 379.2,-117 379.2,-117 484.8,-117 484.8,-117 490.8,-117 496.8,-123 496.8,-129 496.8,-129 496.8,-144.6 496.8,-144.6 496.8,-150.6 490.8,-156.6 484.8,-156.6"/>
<text xml:space="preserve" text-anchor="middle" x="432" y="-137.6" font-family="Helvetica,Arial,sans-serif" font-size="11.00" fill="white">Cost</text>
<text xml:space="preserve" text-anchor="middle" x="432" y="-126.35" font-family="Helvetica,Arial,sans-serif" font-size="11.00" fill="white">Reports</text>
</g>
<!-- distribution&#45;&gt;reports -->
<g id="edge7" class="edge">
<title>distribution&#45;&gt;reports</title>
<path fill="none" stroke="#555555" stroke-width="1.2" d="M432,-201.24C432,-191.62 432,-179.71 432,-168.82"/>
<polygon fill="#555555" stroke="#555555" stroke-width="1.2" points="435.5,-168.96 432,-158.96 428.5,-168.96 435.5,-168.96"/>
</g>
<!-- billing -->
<g id="node14" class="node">
<title>billing</title>
<path fill="#f0f0f0" stroke="#888888" stroke-width="1.5" d="M480.12,-52C480.12,-52 383.88,-52 383.88,-52 377.88,-52 371.88,-46 371.88,-40 371.88,-40 371.88,-28 371.88,-28 371.88,-22 377.88,-16 383.88,-16 383.88,-16 480.12,-16 480.12,-16 486.12,-16 492.12,-22 492.12,-28 492.12,-28 492.12,-40 492.12,-40 492.12,-46 486.12,-52 480.12,-52"/>
<text xml:space="preserve" text-anchor="middle" x="432" y="-29.18" font-family="Helvetica,Arial,sans-serif" font-size="11.00" fill="#151515">Billing / ERP Systems</text>
</g>
<!-- reports&#45;&gt;billing -->
<g id="edge17" class="edge">
<title>reports&#45;&gt;billing</title>
<path fill="none" stroke="#228b22" stroke-width="1.2" stroke-dasharray="5,2" d="M432,-116.36C432,-101.54 432,-80.88 432,-64.09"/>
<polygon fill="#228b22" stroke="#228b22" stroke-width="1.2" points="435.5,-64.5 432,-54.5 428.5,-64.5 435.5,-64.5"/>
<text xml:space="preserve" text-anchor="middle" x="467.62" y="-85.5" font-family="Helvetica,Arial,sans-serif" font-size="10.00" fill="#228b22"> &#160;metering data /</text>
<text xml:space="preserve" text-anchor="middle" x="467.62" y="-75" font-family="Helvetica,Arial,sans-serif" font-size="10.00" fill="#228b22"> &#160;cost reports &#160;</text>
</g>
</g>
</svg>
