<?xml version="1.0" encoding="UTF-8" standalone="no"?>
<!DOCTYPE svg PUBLIC "-//W3C//DTD SVG 1.1//EN"
 "http://www.w3.org/Graphics/SVG/1.1/DTD/svg11.dtd">
<!-- Generated by graphviz version 13.1.2 (20250808.2320)
 -->
<!-- Title: BridgeArchitecture Pages: 1 -->
<svg width="624pt" height="471pt"
 viewBox="0.00 0.00 624.00 471.00" xmlns="http://www.w3.org/2000/svg" xmlns:xlink="http://www.w3.org/1999/xlink">
<g id="graph0" class="graph" transform="scale(1 1) rotate(0) translate(21.6 449.35)">
<title>BridgeArchitecture</title>
<polygon fill="white" stroke="none" points="-21.6,21.6 -21.6,-449.35 602.6,-449.35 602.6,21.6 -21.6,21.6"/>
<g id="clust1" class="cluster">
<title>cluster_dcm</title>
<path fill="#fff0f0" stroke="#cc0000" stroke-width="1.5" d="M20,-195.25C20,-195.25 202,-195.25 202,-195.25 208,-195.25 214,-201.25 214,-207.25 214,-207.25 214,-407.75 214,-407.75 214,-413.75 208,-419.75 202,-419.75 202,-419.75 20,-419.75 20,-419.75 14,-419.75 8,-413.75 8,-407.75 8,-407.75 8,-207.25 8,-207.25 8,-201.25 14,-195.25 20,-195.25"/>
<text xml:space="preserve" text-anchor="start" x="65.62" y="-407.25" font-family="Helvetica,Arial,sans-serif" font-weight="bold" font-size="10.00" fill="#151515">DCM Control Plane</text>
</g>
<!-- dcm -->
<g id="node1" class="node">
<title>dcm</title>
<path fill="#ee0000" stroke="#cc0000" stroke-width="1.2" d="M190.25,-389.25C190.25,-389.25 31.75,-389.25 31.75,-389.25 25.75,-389.25 19.75,-383.25 19.75,-377.25 19.75,-377.25 19.75,-365.25 19.75,-365.25 19.75,-359.25 25.75,-353.25 31.75,-353.25 31.75,-353.25 190.25,-353.25 190.25,-353.25 196.25,-353.25 202.25,-359.25 202.25,-365.25 202.25,-365.25 202.25,-377.25 202.25,-377.25 202.25,-383.25 196.25,-389.25 190.25,-389.25"/>
<text xml:space="preserve" text-anchor="middle" x="111" y="-367.57" font-family="Helvetica,Arial,sans-serif" font-size="9.00" fill="white">Catalog → Placement → Policy → SPRM</text>
</g>
<!-- acm -->
<g id="node2" class="node">
<title>acm</title>
<path fill="#4169e1" stroke="#2850a8" stroke-width="1.2" d="M140,-316.25C140,-316.25 82,-316.25 82,-316.25 76,-316.25 70,-310.25 70,-304.25 70,-304.25 70,-292.25 70,-292.25 70,-286.25 76,-280.25 82,-280.25 82,-280.25 140,-280.25 140,-280.25 146,-280.25 152,-286.25 152,-292.25 152,-292.25 152,-304.25 152,-304.25 152,-310.25 146,-316.25 140,-316.25"/>
<text xml:space="preserve" text-anchor="middle" x="111" y="-294.57" font-family="Helvetica,Arial,sans-serif" font-size="9.00" fill="white">ACM Cluster SP</text>
</g>
<!-- dcm&#45;&gt;acm -->
<g id="edge1" class="edge">
<title>dcm&#45;&gt;acm</title>
<path fill="none" stroke="#555555" stroke-dasharray="5,2" d="M111,-352.7C111,-345.22 111,-336.3 111,-327.9"/>
<polygon fill="#555555" stroke="#555555" points="114.5,-328.11 111,-318.11 107.5,-328.11 114.5,-328.11"/>
</g>
<!-- nats -->
<g id="node3" class="node">
<title>nats</title>
<path fill="#e0e0e0" stroke="#999999" stroke-width="1.2" d="M140.38,-243.25C140.38,-243.25 81.62,-243.25 81.62,-243.25 75.62,-243.25 69.62,-237.25 69.62,-231.25 69.62,-231.25 69.62,-219.25 69.62,-219.25 69.62,-213.25 75.62,-207.25 81.62,-207.25 81.62,-207.25 140.38,-207.25 140.38,-207.25 146.38,-207.25 152.38,-213.25 152.38,-219.25 152.38,-219.25 152.38,-231.25 152.38,-231.25 152.38,-237.25 146.38,-243.25 140.38,-243.25"/>
<text xml:space="preserve" text-anchor="middle" x="111" y="-221.57" font-family="Helvetica,Arial,sans-serif" font-size="9.00" fill="#151515">NATS JetStream</text>
</g>
<!-- acm&#45;&gt;nats -->
<g id="edge2" class="edge">
<title>acm&#45;&gt;nats</title>
<path fill="none" stroke="#555555" stroke-dasharray="5,2" d="M111,-279.7C111,-272.22 111,-263.3 111,-254.9"/>
<polygon fill="#555555" stroke="#555555" points="114.5,-255.11 111,-245.11 107.5,-255.11 114.5,-255.11"/>
</g>
<!-- bridge_box -->
<g id="node4" class="node">
<title>bridge_box</title>
<path fill="lightgrey" stroke="none" stroke-width="1.2" d="M174.75,-168.25C174.75,-168.25 73.25,-168.25 73.25,-168.25 67.25,-168.25 61.25,-162.25 61.25,-156.25 61.25,-156.25 61.25,-12 61.25,-12 61.25,-6 67.25,0 73.25,0 73.25,0 174.75,0 174.75,0 180.75,0 186.75,-6 186.75,-12 186.75,-12 186.75,-156.25 186.75,-156.25 186.75,-162.25 180.75,-168.25 174.75,-168.25"/>
<path fill="#f0e8ff" stroke="none" d="M74.25,-1C74.25,-1 173.75,-1 173.75,-1 179.75,-1 185.75,-7 185.75,-13 185.75,-13 185.75,-155.25 185.75,-155.25 185.75,-161.25 179.75,-167.25 173.75,-167.25 173.75,-167.25 74.25,-167.25 74.25,-167.25 68.25,-167.25 62.25,-161.25 62.25,-155.25 62.25,-155.25 62.25,-13 62.25,-13 62.25,-7 68.25,-1 74.25,-1"/>
<text xml:space="preserve" text-anchor="start" x="85.75" y="-146.7" font-family="Helvetica,Arial,sans-serif" font-weight="bold" font-size="9.00">DCM&#45;Koku Bridge</text>
<polygon fill="#7b68ee" stroke="none" points="69.25,-110.75 69.25,-132.5 178.75,-132.5 178.75,-110.75 69.25,-110.75"/>
<text xml:space="preserve" text-anchor="start" x="89.88" y="-117.95" font-family="Helvetica,Arial,sans-serif" font-size="9.00" fill="white">NATS Consumer</text>
<polygon fill="#7b68ee" stroke="none" points="69.25,-63.5 69.25,-104.75 178.75,-104.75 178.75,-63.5 69.25,-63.5"/>
<text xml:space="preserve" text-anchor="start" x="94.75" y="-90.2" font-family="Helvetica,Arial,sans-serif" font-size="9.00" fill="white">Lifecycle Sync</text>
<text xml:space="preserve" text-anchor="start" x="89.12" y="-80.45" font-family="Helvetica,Arial,sans-serif" font-size="9.00" fill="white">READY → create</text>
<text xml:space="preserve" text-anchor="start" x="75.25" y="-70.7" font-family="Helvetica,Arial,sans-serif" font-size="9.00" fill="white">DELETED → deactivate</text>
<polygon fill="#7b68ee" stroke="none" points="69.25,-35.75 69.25,-57.5 178.75,-57.5 178.75,-35.75 69.25,-35.75"/>
<text xml:space="preserve" text-anchor="start" x="88.38" y="-42.95" font-family="Helvetica,Arial,sans-serif" font-size="9.00" fill="white">ID Mapping Store</text>
<polygon fill="#7b68ee" stroke="none" points="69.25,-8 69.25,-29.75 178.75,-29.75 178.75,-8 69.25,-8"/>
<text xml:space="preserve" text-anchor="start" x="88.75" y="-15.2" font-family="Helvetica,Arial,sans-serif" font-size="9.00" fill="white">Cost Query Proxy</text>
<path fill="none" stroke="#6644aa" stroke-width="2" d="M74.25,-1C74.25,-1 173.75,-1 173.75,-1 179.75,-1 185.75,-7 185.75,-13 185.75,-13 185.75,-155.25 185.75,-155.25 185.75,-161.25 179.75,-167.25 173.75,-167.25 173.75,-167.25 74.25,-167.25 74.25,-167.25 68.25,-167.25 62.25,-161.25 62.25,-155.25 62.25,-155.25 62.25,-13 62.25,-13 62.25,-7 68.25,-1 74.25,-1"/>
</g>
<!-- nats&#45;&gt;bridge_box -->
<g id="edge5" class="edge">
<title>nats:sw&#45;&gt;bridge_box:w</title>
<path fill="none" stroke="#555555" d="M69.62,-206.25C46.14,-182.77 33.73,-134.79 57.03,-123.87"/>
<polygon fill="#555555" stroke="#555555" points="57.65,-127.32 66.77,-121.92 56.27,-120.45 57.65,-127.32"/>
</g>
<!-- koku_box -->
<g id="node5" class="node">
<title>koku_box</title>
<path fill="lightgrey" stroke="none" stroke-width="1.2" d="M379.88,-158.5C379.88,-158.5 270.12,-158.5 270.12,-158.5 264.12,-158.5 258.12,-152.5 258.12,-146.5 258.12,-146.5 258.12,-21.75 258.12,-21.75 258.12,-15.75 264.12,-9.75 270.12,-9.75 270.12,-9.75 379.88,-9.75 379.88,-9.75 385.88,-9.75 391.88,-15.75 391.88,-21.75 391.88,-21.75 391.88,-146.5 391.88,-146.5 391.88,-152.5 385.88,-158.5 379.88,-158.5"/>
<path fill="#f0fff0" stroke="none" d="M271.12,-10.75C271.12,-10.75 378.88,-10.75 378.88,-10.75 384.88,-10.75 390.88,-16.75 390.88,-22.75 390.88,-22.75 390.88,-145.5 390.88,-145.5 390.88,-151.5 384.88,-157.5 378.88,-157.5 378.88,-157.5 271.12,-157.5 271.12,-157.5 265.12,-157.5 259.12,-151.5 259.12,-145.5 259.12,-145.5 259.12,-22.75 259.12,-22.75 259.12,-16.75 265.12,-10.75 271.12,-10.75"/>
<text xml:space="preserve" text-anchor="start" x="272.12" y="-136.95" font-family="Helvetica,Arial,sans-serif" font-weight="bold" font-size="9.00">Koku / cost management</text>
<polygon fill="#2e8b57" stroke="none" points="266.12,-101 266.12,-122.75 383.88,-122.75 383.88,-101 266.12,-101"/>
<text xml:space="preserve" text-anchor="start" x="308.12" y="-108.2" font-family="Helvetica,Arial,sans-serif" font-size="9.00" fill="white">Sources</text>
<polygon fill="#2e8b57" stroke="none" points="266.12,-73.25 266.12,-95 383.88,-95 383.88,-73.25 266.12,-73.25"/>
<text xml:space="preserve" text-anchor="start" x="299.5" y="-80.45" font-family="Helvetica,Arial,sans-serif" font-size="9.00" fill="white">Cost Models</text>
<polygon fill="#2e8b57" stroke="none" points="266.12,-45.5 266.12,-67.25 383.88,-67.25 383.88,-45.5 266.12,-45.5"/>
<text xml:space="preserve" text-anchor="start" x="295.75" y="-52.7" font-family="Helvetica,Arial,sans-serif" font-size="9.00" fill="white">Masu Pipeline</text>
<polygon fill="#2e8b57" stroke="none" points="266.12,-17.75 266.12,-39.5 383.88,-39.5 383.88,-17.75 266.12,-17.75"/>
<text xml:space="preserve" text-anchor="start" x="302.88" y="-24.95" font-family="Helvetica,Arial,sans-serif" font-size="9.00" fill="white">Report API</text>
<path fill="none" stroke="#228b22" stroke-width="2" d="M271.12,-10.75C271.12,-10.75 378.88,-10.75 378.88,-10.75 384.88,-10.75 390.88,-16.75 390.88,-22.75 390.88,-22.75 390.88,-145.5 390.88,-145.5 390.88,-151.5 384.88,-157.5 378.88,-157.5 378.88,-157.5 271.12,-157.5 271.12,-157.5 265.12,-157.5 259.12,-151.5 259.12,-145.5 259.12,-145.5 259.12,-22.75 259.12,-22.75 259.12,-16.75 265.12,-10.75 271.12,-10.75"/>
</g>
<!-- bridge_box&#45;&gt;koku_box -->
<!-- bridge_box&#45;&gt;koku_box -->
<g id="edge6" class="edge">
<title>bridge_box:lifecycle&#45;&gt;koku_box:sources</title>
<path fill="none" stroke="#228b22" d="M179.75,-84.12C195.61,-84.12 194.5,-98.44 209.31,-104.12 226.48,-110.71 235.03,-111.8 248.28,-111.92"/>
<polygon fill="#228b22" stroke="#228b22" points="253.62,-115.41 263.61,-111.88 253.6,-108.41 253.62,-115.41"/>
<text xml:space="preserve" text-anchor="middle" x="222.44" y="-111.8" font-family="Helvetica,Arial,sans-serif" font-size="8.00" fill="#228b22">creates</text>
</g>
<!-- bridge_box&#45;&gt;koku_box -->
<g id="edge7" class="edge">
<title>bridge_box:lifecycle&#45;&gt;koku_box:costmod</title>
<path fill="none" stroke="#228b22" d="M179.75,-84.12C194.96,-84.12 194.63,-70.85 209.31,-66.88 220.57,-63.83 224.3,-63.83 235.56,-66.88 242.9,-68.86 246.49,-73.17 250.15,-76.99"/>
<polygon fill="#228b22" stroke="#228b22" points="253.23,-82.33 263.76,-83.47 256.24,-76.01 253.23,-82.33"/>
<text xml:space="preserve" text-anchor="middle" x="222.44" y="-67.53" font-family="Helvetica,Arial,sans-serif" font-size="8.00" fill="#228b22">assigns</text>
</g>
<!-- bridge_box&#45;&gt;koku_box -->
<g id="edge8" class="edge">
<title>bridge_box:proxy&#45;&gt;koku_box:reports</title>
<path fill="none" stroke="#228b22" d="M179.75,-18.88C194.29,-18.88 195.13,-8.06 209.31,-4.88 220.7,-2.32 224.56,-1 235.56,-4.88 244.26,-7.93 247.24,-14.75 250.92,-20.3"/>
<polygon fill="#228b22" stroke="#228b22" points="253.42,-25.82 263.82,-27.86 256.96,-19.78 253.42,-25.82"/>
<text xml:space="preserve" text-anchor="middle" x="222.44" y="-5.53" font-family="Helvetica,Arial,sans-serif" font-size="8.00" fill="#228b22">queries</text>
</g>
<!-- clusters_box -->
<g id="node6" class="node">
<title>clusters_box</title>
<path fill="lightgrey" stroke="none" stroke-width="1.2" d="M569,-144.62C569,-144.62 475,-144.62 475,-144.62 469,-144.62 463,-138.62 463,-132.62 463,-132.62 463,-35.62 463,-35.62 463,-29.62 469,-23.62 475,-23.62 475,-23.62 569,-23.62 569,-23.62 575,-23.62 581,-29.62 581,-35.62 581,-35.62 581,-132.62 581,-132.62 581,-138.62 575,-144.62 569,-144.62"/>
<path fill="#fffff0" stroke="none" d="M476,-24.62C476,-24.62 568,-24.62 568,-24.62 574,-24.62 580,-30.62 580,-36.62 580,-36.62 580,-131.62 580,-131.62 580,-137.62 574,-143.62 568,-143.62 568,-143.62 476,-143.62 476,-143.62 470,-143.62 464,-137.62 464,-131.62 464,-131.62 464,-36.62 464,-36.62 464,-30.62 470,-24.62 476,-24.62"/>
<text xml:space="preserve" text-anchor="start" x="477" y="-123.08" font-family="Helvetica,Arial,sans-serif" font-weight="bold" font-size="9.00">Provisioned Clusters</text>
<polygon fill="#daa520" stroke="none" points="471,-87.12 471,-108.88 573,-108.88 573,-87.12 471,-87.12"/>
<text xml:space="preserve" text-anchor="start" x="503.25" y="-94.33" font-family="Helvetica,Arial,sans-serif" font-size="9.00" fill="white">Cluster A</text>
<polygon fill="#daa520" stroke="none" points="471,-59.38 471,-81.12 573,-81.12 573,-59.38 471,-59.38"/>
<text xml:space="preserve" text-anchor="start" x="503.25" y="-66.58" font-family="Helvetica,Arial,sans-serif" font-size="9.00" fill="white">Cluster B</text>
<polygon fill="#daa520" stroke="none" points="471,-31.62 471,-53.38 573,-53.38 573,-31.62 471,-31.62"/>
<text xml:space="preserve" text-anchor="start" x="502.88" y="-38.83" font-family="Helvetica,Arial,sans-serif" font-size="9.00" fill="white">Cluster C</text>
<path fill="none" stroke="#b8860b" stroke-width="2" d="M476,-24.62C476,-24.62 568,-24.62 568,-24.62 574,-24.62 580,-30.62 580,-36.62 580,-36.62 580,-131.62 580,-131.62 580,-137.62 574,-143.62 568,-143.62 568,-143.62 476,-143.62 476,-143.62 470,-143.62 464,-137.62 464,-131.62 464,-131.62 464,-36.62 464,-36.62 464,-30.62 470,-24.62 476,-24.62"/>
</g>
<!-- koku_box&#45;&gt;clusters_box -->
<!-- clusters_box&#45;&gt;koku_box -->
<g id="edge9" class="edge">
<title>clusters_box:c1&#45;&gt;koku_box:masu</title>
<path fill="none" stroke="#228b22" stroke-dasharray="5,2" d="M470,-98C444.77,-98 435.52,-116.55 413.56,-104.12 399.25,-96.03 402.22,-77.63 398.57,-66.18"/>
<polygon fill="#228b22" stroke="#228b22" points="396.27,-60.23 386.11,-57.26 392.2,-65.92 396.27,-60.23"/>
<text xml:space="preserve" text-anchor="middle" x="427.44" y="-117.31" font-family="Helvetica,Arial,sans-serif" font-size="8.00" fill="#228b22">metrics</text>
<text xml:space="preserve" text-anchor="middle" x="427.44" y="-109.06" font-family="Helvetica,Arial,sans-serif" font-size="8.00" fill="#228b22">uploads</text>
</g>
<!-- clusters_box&#45;&gt;koku_box -->
<g id="edge10" class="edge">
<title>clusters_box:c2&#45;&gt;koku_box:masu</title>
<path fill="none" stroke="#228b22" stroke-dasharray="5,2" d="M470,-70.25C437.96,-70.25 426.79,-60.55 401.59,-57.37"/>
<polygon fill="#228b22" stroke="#228b22" points="396.58,-53.57 386.39,-56.47 396.16,-60.55 396.58,-53.57"/>
</g>
<!-- clusters_box&#45;&gt;koku_box -->
<g id="edge11" class="edge">
<title>clusters_box:c3&#45;&gt;koku_box:masu</title>
<path fill="none" stroke="#228b22" stroke-dasharray="5,2" d="M470,-42.5C454.1,-42.5 456.4,-26.13 441.31,-21.12 429.61,-17.24 424.7,-15.83 413.56,-21.12 402.59,-26.34 401.75,-38.04 398.42,-46.53"/>
<polygon fill="#228b22" stroke="#228b22" points="392.13,-46.77 386.1,-55.49 396.25,-52.44 392.13,-46.77"/>
</g>
</g>
</svg>
