<?xml version="1.0" encoding="UTF-8" standalone="no"?>
<!DOCTYPE svg PUBLIC "-//W3C//DTD SVG 1.1//EN"
 "http://www.w3.org/Graphics/SVG/1.1/DTD/svg11.dtd">
<!-- Generated by graphviz version 13.1.2 (20250808.2320)
 -->
<!-- Title: CostSPArchitecture Pages: 1 -->
<svg width="571pt" height="697pt"
 viewBox="0.00 0.00 571.00 697.00" xmlns="http://www.w3.org/2000/svg" xmlns:xlink="http://www.w3.org/1999/xlink">
<g id="graph0" class="graph" transform="scale(1 1) rotate(0) translate(21.6 675.1)">
<title>CostSPArchitecture</title>
<polygon fill="white" stroke="none" points="-21.6,21.6 -21.6,-675.1 549.6,-675.1 549.6,21.6 -21.6,21.6"/>
<g id="clust1" class="cluster">
<title>cluster_dcm</title>
<path fill="#fff0f0" stroke="#cc0000" stroke-width="1.5" d="M20,-8C20,-8 247,-8 247,-8 253,-8 259,-14 259,-20 259,-20 259,-633.5 259,-633.5 259,-639.5 253,-645.5 247,-645.5 247,-645.5 20,-645.5 20,-645.5 14,-645.5 8,-639.5 8,-633.5 8,-633.5 8,-20 8,-20 8,-14 14,-8 20,-8"/>
<text xml:space="preserve" text-anchor="start" x="88.12" y="-633" font-family="Helvetica,Arial,sans-serif" font-weight="bold" font-size="10.00" fill="#151515">DCM Control Plane</text>
</g>
<g id="clust3" class="cluster">
<title>cluster_koku</title>
<path fill="#f0fff0" stroke="#228b22" stroke-width="1.5" d="M279,-8.62C279,-8.62 386,-8.62 386,-8.62 392,-8.62 398,-14.62 398,-20.62 398,-20.62 398,-254.75 398,-254.75 398,-260.75 392,-266.75 386,-266.75 386,-266.75 279,-266.75 279,-266.75 273,-266.75 267,-260.75 267,-254.75 267,-254.75 267,-20.62 267,-20.62 267,-14.62 273,-8.62 279,-8.62"/>
<text xml:space="preserve" text-anchor="start" x="274.75" y="-254.25" font-family="Helvetica,Arial,sans-serif" font-weight="bold" font-size="10.00" fill="#151515">Koku / cost management</text>
</g>
<g id="clust4" class="cluster">
<title>cluster_clusters</title>
<path fill="#fffff0" stroke="#b8860b" stroke-width="1.5" d="M418,-70.25C418,-70.25 508,-70.25 508,-70.25 514,-70.25 520,-76.25 520,-82.25 520,-82.25 520,-254.75 520,-254.75 520,-260.75 514,-266.75 508,-266.75 508,-266.75 418,-266.75 418,-266.75 412,-266.75 406,-260.75 406,-254.75 406,-254.75 406,-82.25 406,-82.25 406,-76.25 412,-70.25 418,-70.25"/>
<text xml:space="preserve" text-anchor="start" x="413.88" y="-254.25" font-family="Helvetica,Arial,sans-serif" font-weight="bold" font-size="10.00" fill="#151515">Provisioned Clusters</text>
</g>
<!-- tenant -->
<g id="node1" class="node">
<title>tenant</title>
<path fill="#f0f0f0" stroke="#888888" stroke-width="1.2" d="M98.25,-616.38C98.25,-616.38 29.75,-616.38 29.75,-616.38 23.75,-616.38 17.75,-610.38 17.75,-604.38 17.75,-604.38 17.75,-592.38 17.75,-592.38 17.75,-586.38 23.75,-580.38 29.75,-580.38 29.75,-580.38 98.25,-580.38 98.25,-580.38 104.25,-580.38 110.25,-586.38 110.25,-592.38 110.25,-592.38 110.25,-604.38 110.25,-604.38 110.25,-610.38 104.25,-616.38 98.25,-616.38"/>
<text xml:space="preserve" text-anchor="middle" x="64" y="-599.58" font-family="Helvetica,Arial,sans-serif" font-size="9.00" fill="#151515">Tenant</text>
<text xml:space="preserve" text-anchor="middle" x="64" y="-589.83" font-family="Helvetica,Arial,sans-serif" font-size="9.00" fill="#151515">&quot;Give me a cluster&quot;</text>
</g>
<!-- catalog1 -->
<g id="node3" class="node">
<title>catalog1</title>
<path fill="#ee0000" stroke="#cc0000" stroke-width="1.2" d="M193.38,-554.75C193.38,-554.75 134.62,-554.75 134.62,-554.75 128.62,-554.75 122.62,-548.75 122.62,-542.75 122.62,-542.75 122.62,-530.75 122.62,-530.75 122.62,-524.75 128.62,-518.75 134.62,-518.75 134.62,-518.75 193.38,-518.75 193.38,-518.75 199.38,-518.75 205.38,-524.75 205.38,-530.75 205.38,-530.75 205.38,-542.75 205.38,-542.75 205.38,-548.75 199.38,-554.75 193.38,-554.75"/>
<text xml:space="preserve" text-anchor="middle" x="164" y="-533.08" font-family="Helvetica,Arial,sans-serif" font-size="9.00" fill="white">Catalog (cluster)</text>
</g>
<!-- tenant&#45;&gt;catalog1 -->
<g id="edge1" class="edge">
<title>tenant&#45;&gt;catalog1</title>
<path fill="none" stroke="#cc0000" stroke-width="1.2" d="M102.75,-579.96C102.75,-561.88 102.75,-537 102.75,-537 102.75,-537 112.31,-537 112.31,-537"/>
<polygon fill="#cc0000" stroke="#cc0000" stroke-width="1.2" points="112.31,-539.8 120.31,-537 112.31,-534.2 112.31,-539.8"/>
</g>
<!-- operator_node -->
<g id="node2" class="node">
<title>operator_node</title>
<path fill="#f0f0f0" stroke="#888888" stroke-width="1.2" d="M237.12,-617C237.12,-617 164.88,-617 164.88,-617 158.88,-617 152.88,-611 152.88,-605 152.88,-605 152.88,-591.75 152.88,-591.75 152.88,-585.75 158.88,-579.75 164.88,-579.75 164.88,-579.75 237.12,-579.75 237.12,-579.75 243.12,-579.75 249.12,-585.75 249.12,-591.75 249.12,-591.75 249.12,-605 249.12,-605 249.12,-611 243.12,-617 237.12,-617"/>
<text xml:space="preserve" text-anchor="middle" x="201" y="-604.45" font-family="Helvetica,Arial,sans-serif" font-size="9.00" fill="#151515">Operator (one&#45;time)</text>
<text xml:space="preserve" text-anchor="middle" x="201" y="-594.7" font-family="Helvetica,Arial,sans-serif" font-size="9.00" fill="#151515">configures catalog,</text>
<text xml:space="preserve" text-anchor="middle" x="201" y="-584.95" font-family="Helvetica,Arial,sans-serif" font-size="9.00" fill="#151515">policies, bridge</text>
</g>
<!-- operator_node&#45;&gt;catalog1 -->
<g id="edge2" class="edge">
<title>operator_node&#45;&gt;catalog1</title>
<path fill="none" stroke="#cc0000" stroke-width="1.2" stroke-dasharray="5,2" d="M179.12,-579.21C179.12,-579.21 179.12,-565.08 179.12,-565.08"/>
<polygon fill="#cc0000" stroke="#cc0000" stroke-width="1.2" points="181.93,-565.08 179.13,-557.08 176.33,-565.08 181.93,-565.08"/>
</g>
<!-- placement1 -->
<g id="node4" class="node">
<title>placement1</title>
<path fill="#ee0000" stroke="#cc0000" stroke-width="1.2" d="M220.75,-493.75C220.75,-493.75 107.25,-493.75 107.25,-493.75 101.25,-493.75 95.25,-487.75 95.25,-481.75 95.25,-481.75 95.25,-469.75 95.25,-469.75 95.25,-463.75 101.25,-457.75 107.25,-457.75 107.25,-457.75 220.75,-457.75 220.75,-457.75 226.75,-457.75 232.75,-463.75 232.75,-469.75 232.75,-469.75 232.75,-481.75 232.75,-481.75 232.75,-487.75 226.75,-493.75 220.75,-493.75"/>
<text xml:space="preserve" text-anchor="middle" x="164" y="-472.07" font-family="Helvetica,Arial,sans-serif" font-size="9.00" fill="white">Placement → Policy → SPRM</text>
</g>
<!-- catalog1&#45;&gt;placement1 -->
<g id="edge3" class="edge">
<title>catalog1&#45;&gt;placement1</title>
<path fill="none" stroke="#cc0000" stroke-width="1.2" d="M164,-518.45C164,-518.45 164,-503.86 164,-503.86"/>
<polygon fill="#cc0000" stroke="#cc0000" stroke-width="1.2" points="166.8,-503.86 164,-495.86 161.2,-503.86 166.8,-503.86"/>
</g>
<!-- acm_sp -->
<g id="node5" class="node">
<title>acm_sp</title>
<path fill="#4169e1" stroke="#2850a8" stroke-width="1.2" d="M229,-432.75C229,-432.75 99,-432.75 99,-432.75 93,-432.75 87,-426.75 87,-420.75 87,-420.75 87,-408.75 87,-408.75 87,-402.75 93,-396.75 99,-396.75 99,-396.75 229,-396.75 229,-396.75 235,-396.75 241,-402.75 241,-408.75 241,-408.75 241,-420.75 241,-420.75 241,-426.75 235,-432.75 229,-432.75"/>
<text xml:space="preserve" text-anchor="middle" x="164" y="-415.95" font-family="Helvetica,Arial,sans-serif" font-size="9.00" fill="white">ACM Cluster SP</text>
<text xml:space="preserve" text-anchor="middle" x="164" y="-406.2" font-family="Helvetica,Arial,sans-serif" font-size="9.00" fill="white">Creates cluster, publishes READY</text>
</g>
<!-- placement1&#45;&gt;acm_sp -->
<g id="edge4" class="edge">
<title>placement1&#45;&gt;acm_sp</title>
<path fill="none" stroke="#cc0000" stroke-width="1.2" d="M164,-457.45C164,-457.45 164,-442.86 164,-442.86"/>
<polygon fill="#cc0000" stroke="#cc0000" stroke-width="1.2" points="166.8,-442.86 164,-434.86 161.2,-442.86 166.8,-442.86"/>
</g>
<!-- nats -->
<g id="node6" class="node">
<title>nats</title>
<path fill="#e0e0e0" stroke="#999999" stroke-width="1.2" d="M209.12,-371.75C209.12,-371.75 118.88,-371.75 118.88,-371.75 112.88,-371.75 106.88,-365.75 106.88,-359.75 106.88,-359.75 106.88,-347.75 106.88,-347.75 106.88,-341.75 112.88,-335.75 118.88,-335.75 118.88,-335.75 209.12,-335.75 209.12,-335.75 215.12,-335.75 221.12,-341.75 221.12,-347.75 221.12,-347.75 221.12,-359.75 221.12,-359.75 221.12,-365.75 215.12,-371.75 209.12,-371.75"/>
<text xml:space="preserve" text-anchor="middle" x="164" y="-350.07" font-family="Helvetica,Arial,sans-serif" font-size="9.00" fill="#151515">NATS dcm.status.cluster</text>
</g>
<!-- acm_sp&#45;&gt;nats -->
<g id="edge5" class="edge">
<title>acm_sp&#45;&gt;nats</title>
<path fill="none" stroke="#999999" stroke-width="1.2" stroke-dasharray="5,2" d="M164,-396.45C164,-396.45 164,-381.86 164,-381.86"/>
<polygon fill="#999999" stroke="#999999" stroke-width="1.2" points="166.8,-381.86 164,-373.86 161.2,-381.86 166.8,-381.86"/>
</g>
<!-- bridge -->
<g id="node7" class="node">
<title>bridge</title>
<path fill="#7b68ee" stroke="#5b48ce" stroke-width="1.2" d="M236.5,-310.75C236.5,-310.75 91.5,-310.75 91.5,-310.75 85.5,-310.75 79.5,-304.75 79.5,-298.75 79.5,-298.75 79.5,-286.75 79.5,-286.75 79.5,-280.75 85.5,-274.75 91.5,-274.75 91.5,-274.75 236.5,-274.75 236.5,-274.75 242.5,-274.75 248.5,-280.75 248.5,-286.75 248.5,-286.75 248.5,-298.75 248.5,-298.75 248.5,-304.75 242.5,-310.75 236.5,-310.75"/>
<text xml:space="preserve" text-anchor="middle" x="164" y="-293.95" font-family="Helvetica,Arial,sans-serif" font-size="9.00" fill="white">Bridge (NATS consumer)</text>
<text xml:space="preserve" text-anchor="middle" x="164" y="-284.2" font-family="Helvetica,Arial,sans-serif" font-size="9.00" fill="white">Reads labels → creates cost instance</text>
</g>
<!-- nats&#45;&gt;bridge -->
<g id="edge6" class="edge">
<title>nats&#45;&gt;bridge</title>
<path fill="none" stroke="#6644aa" stroke-width="1.2" d="M164,-335.45C164,-335.45 164,-320.86 164,-320.86"/>
<polygon fill="#6644aa" stroke="#6644aa" stroke-width="1.2" points="166.8,-320.86 164,-312.86 161.2,-320.86 166.8,-320.86"/>
</g>
<!-- catalog2 -->
<g id="node8" class="node">
<title>catalog2</title>
<path fill="#ee0000" stroke="#cc0000" stroke-width="1.2" d="M188.12,-238.25C188.12,-238.25 139.88,-238.25 139.88,-238.25 133.88,-238.25 127.88,-232.25 127.88,-226.25 127.88,-226.25 127.88,-214.25 127.88,-214.25 127.88,-208.25 133.88,-202.25 139.88,-202.25 139.88,-202.25 188.12,-202.25 188.12,-202.25 194.12,-202.25 200.12,-208.25 200.12,-214.25 200.12,-214.25 200.12,-226.25 200.12,-226.25 200.12,-232.25 194.12,-238.25 188.12,-238.25"/>
<text xml:space="preserve" text-anchor="middle" x="164" y="-216.57" font-family="Helvetica,Arial,sans-serif" font-size="9.00" fill="white">Catalog (cost)</text>
</g>
<!-- bridge&#45;&gt;catalog2 -->
<g id="edge7" class="edge">
<title>bridge&#45;&gt;catalog2</title>
<path fill="none" stroke="#cc0000" stroke-width="1.2" d="M164,-274.46C164,-274.46 164,-248.61 164,-248.61"/>
<polygon fill="#cc0000" stroke="#cc0000" stroke-width="1.2" points="166.8,-248.61 164,-240.61 161.2,-248.61 166.8,-248.61"/>
</g>
<!-- placement2 -->
<g id="node9" class="node">
<title>placement2</title>
<path fill="#ee0000" stroke="#cc0000" stroke-width="1.2" d="M214.25,-177.25C214.25,-177.25 115.75,-177.25 115.75,-177.25 109.75,-177.25 103.75,-171.25 103.75,-165.25 103.75,-165.25 103.75,-153.25 103.75,-153.25 103.75,-147.25 109.75,-141.25 115.75,-141.25 115.75,-141.25 214.25,-141.25 214.25,-141.25 220.25,-141.25 226.25,-147.25 226.25,-153.25 226.25,-153.25 226.25,-165.25 226.25,-165.25 226.25,-171.25 220.25,-177.25 214.25,-177.25"/>
<text xml:space="preserve" text-anchor="middle" x="165" y="-160.45" font-family="Helvetica,Arial,sans-serif" font-size="9.00" fill="white">Placement → Policy</text>
<text xml:space="preserve" text-anchor="middle" x="165" y="-150.7" font-family="Helvetica,Arial,sans-serif" font-size="9.00" fill="white">(rate governance, markup)</text>
</g>
<!-- catalog2&#45;&gt;placement2 -->
<g id="edge8" class="edge">
<title>catalog2&#45;&gt;placement2</title>
<path fill="none" stroke="#cc0000" stroke-width="1.2" d="M164,-201.95C164,-201.95 164,-187.36 164,-187.36"/>
<polygon fill="#cc0000" stroke="#cc0000" stroke-width="1.2" points="166.8,-187.36 164,-179.36 161.2,-187.36 166.8,-187.36"/>
</g>
<!-- sprm -->
<g id="node10" class="node">
<title>sprm</title>
<path fill="#ee0000" stroke="#cc0000" stroke-width="1.2" d="M181,-116.25C181,-116.25 151,-116.25 151,-116.25 145,-116.25 139,-110.25 139,-104.25 139,-104.25 139,-92.25 139,-92.25 139,-86.25 145,-80.25 151,-80.25 151,-80.25 181,-80.25 181,-80.25 187,-80.25 193,-86.25 193,-92.25 193,-92.25 193,-104.25 193,-104.25 193,-110.25 187,-116.25 181,-116.25"/>
<text xml:space="preserve" text-anchor="middle" x="166" y="-94.58" font-family="Helvetica,Arial,sans-serif" font-size="9.00" fill="white">SPRM</text>
</g>
<!-- placement2&#45;&gt;sprm -->
<g id="edge9" class="edge">
<title>placement2&#45;&gt;sprm</title>
<path fill="none" stroke="#cc0000" stroke-width="1.2" d="M166,-140.95C166,-140.95 166,-126.36 166,-126.36"/>
<polygon fill="#cc0000" stroke="#cc0000" stroke-width="1.2" points="168.8,-126.36 166,-118.36 163.2,-126.36 168.8,-126.36"/>
</g>
<!-- cost_sp -->
<g id="node11" class="node">
<title>cost_sp</title>
<path fill="#228b22" stroke="#1a6b1a" stroke-width="1.2" d="M228,-55.25C228,-55.25 104,-55.25 104,-55.25 98,-55.25 92,-49.25 92,-43.25 92,-43.25 92,-30 92,-30 92,-24 98,-18 104,-18 104,-18 228,-18 228,-18 234,-18 240,-24 240,-30 240,-30 240,-43.25 240,-43.25 240,-49.25 234,-55.25 228,-55.25"/>
<text xml:space="preserve" text-anchor="middle" x="166" y="-42.7" font-family="Helvetica,Arial,sans-serif" font-size="9.00" fill="white">koku&#45;cost&#45;provider</text>
<text xml:space="preserve" text-anchor="middle" x="166" y="-32.95" font-family="Helvetica,Arial,sans-serif" font-size="9.00" fill="white">Creates Sources + Cost Models</text>
<text xml:space="preserve" text-anchor="middle" x="166" y="-23.2" font-family="Helvetica,Arial,sans-serif" font-size="9.00" fill="white">Serves metering / cost query API</text>
</g>
<!-- sprm&#45;&gt;cost_sp -->
<g id="edge10" class="edge">
<title>sprm&#45;&gt;cost_sp</title>
<path fill="none" stroke="#228b22" stroke-width="1.2" d="M166,-79.76C166,-79.76 166,-65.34 166,-65.34"/>
<polygon fill="#228b22" stroke="#228b22" stroke-width="1.2" points="168.8,-65.34 166,-57.34 163.2,-65.34 168.8,-65.34"/>
</g>
<!-- koku_src -->
<g id="node15" class="node">
<title>koku_src</title>
<path fill="#2e8b57" stroke="#1a6b1a" stroke-width="1.2" d="M326,-54.62C326,-54.62 296,-54.62 296,-54.62 290,-54.62 284,-48.62 284,-42.62 284,-42.62 284,-30.62 284,-30.62 284,-24.62 290,-18.62 296,-18.62 296,-18.62 326,-18.62 326,-18.62 332,-18.62 338,-24.62 338,-30.62 338,-30.62 338,-42.62 338,-42.62 338,-48.62 332,-54.62 326,-54.62"/>
<text xml:space="preserve" text-anchor="middle" x="311" y="-32.95" font-family="Helvetica,Arial,sans-serif" font-size="9.00" fill="white">Sources</text>
</g>
<!-- cost_sp&#45;&gt;koku_src -->
<g id="edge16" class="edge">
<title>cost_sp&#45;&gt;koku_src</title>
<path fill="none" stroke="#228b22" stroke-width="2" d="M240.2,-37C240.2,-37 268.45,-37 268.45,-37"/>
<polygon fill="#228b22" stroke="#228b22" stroke-width="2" points="268.45,-41.2 280.45,-37 268.45,-32.8 268.45,-41.2"/>
<text xml:space="preserve" text-anchor="middle" x="268.57" y="-29.4" font-family="Helvetica,Arial,sans-serif" font-size="8.00" fill="#228b22">Koku REST API</text>
</g>
<!-- koku_masu -->
<g id="node12" class="node">
<title>koku_masu</title>
<path fill="#2e8b57" stroke="#1a6b1a" stroke-width="1.2" d="M339.25,-238.25C339.25,-238.25 288.75,-238.25 288.75,-238.25 282.75,-238.25 276.75,-232.25 276.75,-226.25 276.75,-226.25 276.75,-214.25 276.75,-214.25 276.75,-208.25 282.75,-202.25 288.75,-202.25 288.75,-202.25 339.25,-202.25 339.25,-202.25 345.25,-202.25 351.25,-208.25 351.25,-214.25 351.25,-214.25 351.25,-226.25 351.25,-226.25 351.25,-232.25 345.25,-238.25 339.25,-238.25"/>
<text xml:space="preserve" text-anchor="middle" x="314" y="-216.57" font-family="Helvetica,Arial,sans-serif" font-size="9.00" fill="white">Masu Pipeline</text>
</g>
<!-- koku_reports -->
<g id="node13" class="node">
<title>koku_reports</title>
<path fill="#2e8b57" stroke="#1a6b1a" stroke-width="1.2" d="M333.38,-177.25C333.38,-177.25 292.62,-177.25 292.62,-177.25 286.62,-177.25 280.62,-171.25 280.62,-165.25 280.62,-165.25 280.62,-153.25 280.62,-153.25 280.62,-147.25 286.62,-141.25 292.62,-141.25 292.62,-141.25 333.38,-141.25 333.38,-141.25 339.38,-141.25 345.38,-147.25 345.38,-153.25 345.38,-153.25 345.38,-165.25 345.38,-165.25 345.38,-171.25 339.38,-177.25 333.38,-177.25"/>
<text xml:space="preserve" text-anchor="middle" x="313" y="-155.57" font-family="Helvetica,Arial,sans-serif" font-size="9.00" fill="white">Reports API</text>
</g>
<!-- koku_masu&#45;&gt;koku_reports -->
<!-- koku_cm -->
<g id="node14" class="node">
<title>koku_cm</title>
<path fill="#2e8b57" stroke="#1a6b1a" stroke-width="1.2" d="M333.5,-116.25C333.5,-116.25 290.5,-116.25 290.5,-116.25 284.5,-116.25 278.5,-110.25 278.5,-104.25 278.5,-104.25 278.5,-92.25 278.5,-92.25 278.5,-86.25 284.5,-80.25 290.5,-80.25 290.5,-80.25 333.5,-80.25 333.5,-80.25 339.5,-80.25 345.5,-86.25 345.5,-92.25 345.5,-92.25 345.5,-104.25 345.5,-104.25 345.5,-110.25 339.5,-116.25 333.5,-116.25"/>
<text xml:space="preserve" text-anchor="middle" x="312" y="-94.58" font-family="Helvetica,Arial,sans-serif" font-size="9.00" fill="white">Cost Models</text>
</g>
<!-- koku_reports&#45;&gt;koku_cm -->
<!-- koku_cm&#45;&gt;koku_src -->
<!-- ca -->
<g id="node16" class="node">
<title>ca</title>
<path fill="#daa520" stroke="#b8860b" stroke-width="1.2" d="M478,-238.25C478,-238.25 448,-238.25 448,-238.25 442,-238.25 436,-232.25 436,-226.25 436,-226.25 436,-214.25 436,-214.25 436,-208.25 442,-202.25 448,-202.25 448,-202.25 478,-202.25 478,-202.25 484,-202.25 490,-208.25 490,-214.25 490,-214.25 490,-226.25 490,-226.25 490,-232.25 484,-238.25 478,-238.25"/>
<text xml:space="preserve" text-anchor="middle" x="463" y="-216.57" font-family="Helvetica,Arial,sans-serif" font-size="9.00" fill="white">Cluster A</text>
</g>
<!-- ca&#45;&gt;koku_masu -->
<g id="edge17" class="edge">
<title>ca&#45;&gt;koku_masu</title>
<path fill="none" stroke="#228b22" stroke-width="2" stroke-dasharray="5,2" d="M435.67,-229C435.67,-229 366.84,-229 366.84,-229"/>
<polygon fill="#228b22" stroke="#228b22" stroke-width="2" points="366.84,-224.8 354.84,-229 366.84,-233.2 366.84,-224.8"/>
<text xml:space="preserve" text-anchor="middle" x="387.38" y="-237.9" font-family="Helvetica,Arial,sans-serif" font-size="8.00" fill="#228b22">metrics</text>
<text xml:space="preserve" text-anchor="middle" x="387.38" y="-229.65" font-family="Helvetica,Arial,sans-serif" font-size="8.00" fill="#228b22">uploads</text>
</g>
<!-- cb -->
<g id="node17" class="node">
<title>cb</title>
<path fill="#daa520" stroke="#b8860b" stroke-width="1.2" d="M478,-177.25C478,-177.25 448,-177.25 448,-177.25 442,-177.25 436,-171.25 436,-165.25 436,-165.25 436,-153.25 436,-153.25 436,-147.25 442,-141.25 448,-141.25 448,-141.25 478,-141.25 478,-141.25 484,-141.25 490,-147.25 490,-153.25 490,-153.25 490,-165.25 490,-165.25 490,-171.25 484,-177.25 478,-177.25"/>
<text xml:space="preserve" text-anchor="middle" x="463" y="-155.57" font-family="Helvetica,Arial,sans-serif" font-size="9.00" fill="white">Cluster B</text>
</g>
<!-- ca&#45;&gt;cb -->
<!-- cb&#45;&gt;koku_masu -->
<g id="edge18" class="edge">
<title>cb&#45;&gt;koku_masu</title>
<path fill="none" stroke="#228b22" stroke-width="2" stroke-dasharray="5,2" d="M435.66,-159C421.72,-159 407.67,-159 407.67,-159 407.67,-159 407.67,-220 407.67,-220 407.67,-220 366.85,-220 366.85,-220"/>
<polygon fill="#228b22" stroke="#228b22" stroke-width="2" points="366.85,-215.8 354.85,-220 366.85,-224.2 366.85,-215.8"/>
</g>
<!-- cn -->
<g id="node18" class="node">
<title>cn</title>
<path fill="#daa520" stroke="#b8860b" stroke-width="1.2" d="M478.12,-116.25C478.12,-116.25 447.88,-116.25 447.88,-116.25 441.88,-116.25 435.88,-110.25 435.88,-104.25 435.88,-104.25 435.88,-92.25 435.88,-92.25 435.88,-86.25 441.88,-80.25 447.88,-80.25 447.88,-80.25 478.12,-80.25 478.12,-80.25 484.12,-80.25 490.12,-86.25 490.12,-92.25 490.12,-92.25 490.12,-104.25 490.12,-104.25 490.12,-110.25 484.12,-116.25 478.12,-116.25"/>
<text xml:space="preserve" text-anchor="middle" x="463" y="-94.58" font-family="Helvetica,Arial,sans-serif" font-size="9.00" fill="white">Cluster N</text>
</g>
<!-- cb&#45;&gt;cn -->
<!-- cn&#45;&gt;koku_masu -->
<g id="edge19" class="edge">
<title>cn&#45;&gt;koku_masu</title>
<path fill="none" stroke="#228b22" stroke-width="2" stroke-dasharray="5,2" d="M435.65,-98C411.28,-98 379.46,-98 379.46,-98 379.46,-98 379.46,-211 379.46,-211 379.46,-211 366.73,-211 366.73,-211"/>
<polygon fill="#228b22" stroke="#228b22" stroke-width="2" points="366.73,-206.8 354.73,-211 366.73,-215.2 366.73,-206.8"/>
</g>
</g>
</svg>
