<?xml version="1.0" encoding="UTF-8" standalone="no"?>
<!DOCTYPE svg PUBLIC "-//W3C//DTD SVG 1.1//EN"
 "http://www.w3.org/Graphics/SVG/1.1/DTD/svg11.dtd">
<!-- Generated by graphviz version 13.1.2 (20250808.2320)
 -->
<!-- Title: DCMTopology Pages: 1 -->
<svg width="604pt" height="411pt"
 viewBox="0.00 0.00 604.00 411.00" xmlns="http://www.w3.org/2000/svg" xmlns:xlink="http://www.w3.org/1999/xlink">
<g id="graph0" class="graph" transform="scale(1 1) rotate(0) translate(21.6 389.68)">
<title>DCMTopology</title>
<polygon fill="white" stroke="none" points="-21.6,21.6 -21.6,-389.68 582.6,-389.68 582.6,21.6 -21.6,21.6"/>
<g id="clust1" class="cluster">
<title>cluster_dcm</title>
<path fill="#fff0f0" stroke="#cc0000" stroke-width="1.5" d="M20,-8C20,-8 287,-8 287,-8 293,-8 299,-14 299,-20 299,-20 299,-312.07 299,-312.07 299,-318.07 293,-324.07 287,-324.07 287,-324.07 20,-324.07 20,-324.07 14,-324.07 8,-318.07 8,-312.07 8,-312.07 8,-20 8,-20 8,-14 14,-8 20,-8"/>
<text xml:space="preserve" text-anchor="start" x="108.12" y="-311.57" font-family="Helvetica,Arial,sans-serif" font-weight="bold" font-size="10.00" fill="#151515">DCM Control Plane</text>
</g>
<!-- user -->
<g id="node1" class="node">
<title>user</title>
<path fill="#f0f0f0" stroke="#888888" stroke-width="1.2" d="M169.25,-368.07C169.25,-368.07 136.75,-368.07 136.75,-368.07 130.75,-368.07 124.75,-362.07 124.75,-356.07 124.75,-356.07 124.75,-344.07 124.75,-344.07 124.75,-338.07 130.75,-332.07 136.75,-332.07 136.75,-332.07 169.25,-332.07 169.25,-332.07 175.25,-332.07 181.25,-338.07 181.25,-344.07 181.25,-344.07 181.25,-356.07 181.25,-356.07 181.25,-362.07 175.25,-368.07 169.25,-368.07"/>
<text xml:space="preserve" text-anchor="middle" x="153" y="-346.4" font-family="Helvetica,Arial,sans-serif" font-size="9.00" fill="#151515">User / CLI</text>
</g>
<!-- gateway -->
<g id="node2" class="node">
<title>gateway</title>
<path fill="#ee0000" stroke="#cc0000" stroke-width="1.2" d="M204.88,-295.57C204.88,-295.57 101.12,-295.57 101.12,-295.57 95.12,-295.57 89.12,-289.57 89.12,-283.57 89.12,-283.57 89.12,-271.57 89.12,-271.57 89.12,-265.57 95.12,-259.57 101.12,-259.57 101.12,-259.57 204.88,-259.57 204.88,-259.57 210.88,-259.57 216.88,-265.57 216.88,-271.57 216.88,-271.57 216.88,-283.57 216.88,-283.57 216.88,-289.57 210.88,-295.57 204.88,-295.57"/>
<text xml:space="preserve" text-anchor="middle" x="153" y="-273.9" font-family="Helvetica,Arial,sans-serif" font-size="9.00" fill="white">API Gateway (Traefik :9080)</text>
</g>
<!-- user&#45;&gt;gateway -->
<g id="edge7" class="edge">
<title>user&#45;&gt;gateway</title>
<path fill="none" stroke="#555555" stroke-width="1.2" d="M153,-331.78C153,-331.78 153,-305.93 153,-305.93"/>
<polygon fill="#555555" stroke="#555555" stroke-width="1.2" points="155.8,-305.93 153,-297.93 150.2,-305.93 155.8,-305.93"/>
</g>
<!-- catalog -->
<g id="node3" class="node">
<title>catalog</title>
<path fill="#ee0000" stroke="#cc0000" stroke-width="1.2" d="M92.25,-234.57C92.25,-234.57 29.75,-234.57 29.75,-234.57 23.75,-234.57 17.75,-228.57 17.75,-222.57 17.75,-222.57 17.75,-210.57 17.75,-210.57 17.75,-204.57 23.75,-198.57 29.75,-198.57 29.75,-198.57 92.25,-198.57 92.25,-198.57 98.25,-198.57 104.25,-204.57 104.25,-210.57 104.25,-210.57 104.25,-222.57 104.25,-222.57 104.25,-228.57 98.25,-234.57 92.25,-234.57"/>
<text xml:space="preserve" text-anchor="middle" x="61" y="-212.9" font-family="Helvetica,Arial,sans-serif" font-size="9.00" fill="white">Catalog Manager</text>
</g>
<!-- gateway&#45;&gt;catalog -->
<g id="edge1" class="edge">
<title>gateway&#45;&gt;catalog</title>
<path fill="none" stroke="#cc0000" stroke-width="1.2" d="M96.69,-259.27C96.69,-259.27 96.69,-244.68 96.69,-244.68"/>
<polygon fill="#cc0000" stroke="#cc0000" stroke-width="1.2" points="99.49,-244.68 96.69,-236.68 93.89,-244.68 99.49,-244.68"/>
</g>
<!-- placement -->
<g id="node4" class="node">
<title>placement</title>
<path fill="#ee0000" stroke="#cc0000" stroke-width="1.2" d="M277.25,-234.57C277.25,-234.57 202.75,-234.57 202.75,-234.57 196.75,-234.57 190.75,-228.57 190.75,-222.57 190.75,-222.57 190.75,-210.57 190.75,-210.57 190.75,-204.57 196.75,-198.57 202.75,-198.57 202.75,-198.57 277.25,-198.57 277.25,-198.57 283.25,-198.57 289.25,-204.57 289.25,-210.57 289.25,-210.57 289.25,-222.57 289.25,-222.57 289.25,-228.57 283.25,-234.57 277.25,-234.57"/>
<text xml:space="preserve" text-anchor="middle" x="240" y="-212.9" font-family="Helvetica,Arial,sans-serif" font-size="9.00" fill="white">Placement Manager</text>
</g>
<!-- gateway&#45;&gt;placement -->
<g id="edge2" class="edge">
<title>gateway&#45;&gt;placement</title>
<path fill="none" stroke="#cc0000" stroke-width="1.2" d="M203.81,-259.27C203.81,-259.27 203.81,-244.68 203.81,-244.68"/>
<polygon fill="#cc0000" stroke="#cc0000" stroke-width="1.2" points="206.61,-244.68 203.81,-236.68 201.01,-244.68 206.61,-244.68"/>
</g>
<!-- policy -->
<g id="node5" class="node">
<title>policy</title>
<path fill="#ee0000" stroke="#cc0000" stroke-width="1.2" d="M104.88,-173.57C104.88,-173.57 49.12,-173.57 49.12,-173.57 43.12,-173.57 37.12,-167.57 37.12,-161.57 37.12,-161.57 37.12,-149.57 37.12,-149.57 37.12,-143.57 43.12,-137.57 49.12,-137.57 49.12,-137.57 104.88,-137.57 104.88,-137.57 110.88,-137.57 116.88,-143.57 116.88,-149.57 116.88,-149.57 116.88,-161.57 116.88,-161.57 116.88,-167.57 110.88,-173.57 104.88,-173.57"/>
<text xml:space="preserve" text-anchor="middle" x="77" y="-156.77" font-family="Helvetica,Arial,sans-serif" font-size="9.00" fill="white">Policy Manager</text>
<text xml:space="preserve" text-anchor="middle" x="77" y="-147.02" font-family="Helvetica,Arial,sans-serif" font-size="9.00" fill="white">(OPA / Rego)</text>
</g>
<!-- placement&#45;&gt;policy -->
<g id="edge3" class="edge">
<title>placement&#45;&gt;policy</title>
<path fill="none" stroke="#cc0000" stroke-width="1.2" d="M196.69,-198.07C196.69,-180.26 196.69,-156 196.69,-156 196.69,-156 127,-156 127,-156"/>
<polygon fill="#cc0000" stroke="#cc0000" stroke-width="1.2" points="127,-153.2 119,-156 127,-158.8 127,-153.2"/>
</g>
<!-- spm -->
<g id="node6" class="node">
<title>spm</title>
<path fill="#ee0000" stroke="#cc0000" stroke-width="1.2" d="M273.38,-173.57C273.38,-173.57 214.62,-173.57 214.62,-173.57 208.62,-173.57 202.62,-167.57 202.62,-161.57 202.62,-161.57 202.62,-149.57 202.62,-149.57 202.62,-143.57 208.62,-137.57 214.62,-137.57 214.62,-137.57 273.38,-137.57 273.38,-137.57 279.38,-137.57 285.38,-143.57 285.38,-149.57 285.38,-149.57 285.38,-161.57 285.38,-161.57 285.38,-167.57 279.38,-173.57 273.38,-173.57"/>
<text xml:space="preserve" text-anchor="middle" x="244" y="-156.77" font-family="Helvetica,Arial,sans-serif" font-size="9.00" fill="white">Service Provider</text>
<text xml:space="preserve" text-anchor="middle" x="244" y="-147.02" font-family="Helvetica,Arial,sans-serif" font-size="9.00" fill="white">Manager (SPM)</text>
</g>
<!-- placement&#45;&gt;spm -->
<g id="edge4" class="edge">
<title>placement&#45;&gt;spm</title>
<path fill="none" stroke="#cc0000" stroke-width="1.2" d="M244,-198.27C244,-198.27 244,-183.68 244,-183.68"/>
<polygon fill="#cc0000" stroke="#cc0000" stroke-width="1.2" points="246.8,-183.68 244,-175.68 241.2,-183.68 246.8,-183.68"/>
</g>
<!-- pg -->
<g id="node7" class="node">
<title>pg</title>
<path fill="#e0e0e0" stroke="#999999" stroke-width="1.2" d="M127.75,-79.2C127.75,-79.2 86.25,-79.2 86.25,-79.2 80.25,-79.2 74.25,-73.2 74.25,-67.2 74.25,-67.2 74.25,-55.2 74.25,-55.2 74.25,-49.2 80.25,-43.2 86.25,-43.2 86.25,-43.2 127.75,-43.2 127.75,-43.2 133.75,-43.2 139.75,-49.2 139.75,-55.2 139.75,-55.2 139.75,-67.2 139.75,-67.2 139.75,-73.2 133.75,-79.2 127.75,-79.2"/>
<text xml:space="preserve" text-anchor="middle" x="107" y="-57.52" font-family="Helvetica,Arial,sans-serif" font-size="9.00" fill="#151515">PostgreSQL</text>
</g>
<!-- spm&#45;&gt;pg -->
<g id="edge5" class="edge">
<title>spm&#45;&gt;pg</title>
<path fill="none" stroke="#999999" stroke-width="1.2" stroke-dasharray="5,2" d="M214,-137.34C214,-109.86 214,-61 214,-61 214,-61 150.09,-61 150.09,-61"/>
<polygon fill="#999999" stroke="#999999" stroke-width="1.2" points="150.09,-58.2 142.09,-61 150.09,-63.8 150.09,-58.2"/>
</g>
<!-- nats -->
<g id="node8" class="node">
<title>nats</title>
<path fill="#e0e0e0" stroke="#999999" stroke-width="1.2" d="M270.62,-104.4C270.62,-104.4 237.38,-104.4 237.38,-104.4 231.38,-104.4 225.38,-98.4 225.38,-92.4 225.38,-92.4 225.38,-30 225.38,-30 225.38,-24 231.38,-18 237.38,-18 237.38,-18 270.62,-18 270.62,-18 276.62,-18 282.62,-24 282.62,-30 282.62,-30 282.62,-92.4 282.62,-92.4 282.62,-98.4 276.62,-104.4 270.62,-104.4"/>
<text xml:space="preserve" text-anchor="middle" x="254" y="-62.4" font-family="Helvetica,Arial,sans-serif" font-size="9.00" fill="#151515">NATS</text>
<text xml:space="preserve" text-anchor="middle" x="254" y="-52.65" font-family="Helvetica,Arial,sans-serif" font-size="9.00" fill="#151515">JetStream</text>
</g>
<!-- spm&#45;&gt;nats -->
<g id="edge6" class="edge">
<title>spm&#45;&gt;nats</title>
<path fill="none" stroke="#999999" stroke-width="1.2" stroke-dasharray="5,2" d="M254,-137.38C254,-137.38 254,-114.6 254,-114.6"/>
<polygon fill="#999999" stroke="#999999" stroke-width="1.2" points="256.8,-114.6 254,-106.6 251.2,-114.6 256.8,-114.6"/>
</g>
<!-- sp_box -->
<g id="node9" class="node">
<title>sp_box</title>
<path fill="lightgrey" stroke="none" stroke-width="1.2" d="M549,-112.57C549,-112.57 381,-112.57 381,-112.57 375,-112.57 369,-106.57 369,-100.57 369,-100.57 369,-21.83 369,-21.83 369,-15.83 375,-9.83 381,-9.83 381,-9.83 549,-9.83 549,-9.83 555,-9.83 561,-15.83 561,-21.83 561,-21.83 561,-100.57 561,-100.57 561,-106.57 555,-112.57 549,-112.57"/>
<path fill="#f0f0ff" stroke="none" d="M382,-10.82C382,-10.82 548,-10.82 548,-10.82 554,-10.82 560,-16.82 560,-22.82 560,-22.82 560,-99.57 560,-99.57 560,-105.57 554,-111.57 548,-111.57 548,-111.57 382,-111.57 382,-111.57 376,-111.57 370,-105.57 370,-99.57 370,-99.57 370,-22.82 370,-22.82 370,-16.82 376,-10.82 382,-10.82"/>
<text xml:space="preserve" text-anchor="start" x="426.38" y="-93.02" font-family="Helvetica,Arial,sans-serif" font-weight="bold" font-size="9.00">Service Providers</text>
<polygon fill="#f0f0ff" stroke="none" points="376,-51.32 376,-80.82 386,-80.82 386,-51.32 376,-51.32"/>
<polygon fill="#4169e1" stroke="none" points="391,-51.32 391,-80.82 473.75,-80.82 473.75,-51.32 391,-51.32"/>
<text xml:space="preserve" text-anchor="start" x="396" y="-67.27" font-family="Helvetica,Arial,sans-serif" font-size="9.00" fill="white">K8s Container SP</text>
<text xml:space="preserve" text-anchor="start" x="402.75" y="-57.52" font-family="Helvetica,Arial,sans-serif" font-size="9.00" fill="white">(Deployments)</text>
<polygon fill="#4169e1" stroke="none" points="478.75,-51.32 478.75,-80.82 554,-80.82 554,-51.32 478.75,-51.32"/>
<text xml:space="preserve" text-anchor="start" x="483.75" y="-67.27" font-family="Helvetica,Arial,sans-serif" font-size="9.00" fill="white">KubeVirt VM SP</text>
<text xml:space="preserve" text-anchor="start" x="504.38" y="-57.52" font-family="Helvetica,Arial,sans-serif" font-size="9.00" fill="white">(VMs)</text>
<polygon fill="#f0f0ff" stroke="none" points="376,-16.82 376,-46.32 386,-46.32 386,-16.82 376,-16.82"/>
<polygon fill="#4169e1" stroke="none" points="391,-16.82 391,-46.32 473.75,-46.32 473.75,-16.82 391,-16.82"/>
<text xml:space="preserve" text-anchor="start" x="399.38" y="-32.77" font-family="Helvetica,Arial,sans-serif" font-size="9.00" fill="white">ACM Cluster SP</text>
<text xml:space="preserve" text-anchor="start" x="407.62" y="-23.02" font-family="Helvetica,Arial,sans-serif" font-size="9.00" fill="white">(HyperShift)</text>
<polygon fill="#7b9bd5" stroke="none" points="478.75,-16.82 478.75,-46.32 554,-46.32 554,-16.82 478.75,-16.82"/>
<text xml:space="preserve" text-anchor="start" x="499.88" y="-33.02" font-family="Helvetica,Arial,sans-serif" font-style="italic" font-size="9.00" fill="white">Your SP</text>
<text xml:space="preserve" text-anchor="start" x="496.12" y="-24.02" font-family="Helvetica,Arial,sans-serif" font-style="italic" font-size="9.00" fill="white">(anything)</text>
<path fill="none" stroke="#4444cc" stroke-width="2" d="M382,-10.82C382,-10.82 548,-10.82 548,-10.82 554,-10.82 560,-16.82 560,-22.82 560,-22.82 560,-99.57 560,-99.57 560,-105.57 554,-111.57 548,-111.57 548,-111.57 382,-111.57 382,-111.57 376,-111.57 370,-105.57 370,-99.57 370,-99.57 370,-22.82 370,-22.82 370,-16.82 376,-10.82 382,-10.82"/>
</g>
<!-- nats&#45;&gt;sp_box -->
<g id="edge8" class="edge">
<title>nats:ne&#45;&gt;sp_box</title>
<path fill="none" stroke="#555555" stroke-width="2" d="M282.62,-76C282.62,-76 353.98,-76 353.98,-76"/>
<polygon fill="#555555" stroke="#555555" stroke-width="2" points="353.98,-80.2 365.98,-76 353.98,-71.8 353.98,-80.2"/>
<text xml:space="preserve" text-anchor="middle" x="343.43" y="-76.65" font-family="Helvetica,Arial,sans-serif" font-size="8.00">HTTP + NATS</text>
</g>
<!-- sp_box&#45;&gt;nats -->
<g id="edge9" class="edge">
<title>sp_box&#45;&gt;nats:se</title>
<path fill="none" stroke="#228b22" stroke-width="2" stroke-dasharray="5,2" d="M369.01,-47C369.01,-47 297.65,-47 297.65,-47"/>
<polygon fill="#228b22" stroke="#228b22" stroke-width="2" points="297.65,-42.8 285.65,-47 297.65,-51.2 297.65,-42.8"/>
<text xml:space="preserve" text-anchor="middle" x="310.83" y="-47.65" font-family="Helvetica,Arial,sans-serif" font-size="8.00" fill="#228b22">CloudEvents</text>
</g>
</g>
</svg>
