<?xml version="1.0" encoding="UTF-8" standalone="no"?>
<!DOCTYPE svg PUBLIC "-//W3C//DTD SVG 1.1//EN"
 "http://www.w3.org/Graphics/SVG/1.1/DTD/svg11.dtd">
<!-- Generated by graphviz version 13.1.2 (20250808.2320)
 -->
<!-- Title: DeploymentTopology Pages: 1 -->
<svg width="498pt" height="422pt"
 viewBox="0.00 0.00 498.00 422.00" xmlns="http://www.w3.org/2000/svg" xmlns:xlink="http://www.w3.org/1999/xlink">
<g id="graph0" class="graph" transform="scale(1 1) rotate(0) translate(21.6 400.85)">
<title>DeploymentTopology</title>
<polygon fill="white" stroke="none" points="-21.6,21.6 -21.6,-400.85 476.35,-400.85 476.35,21.6 -21.6,21.6"/>
<!-- dcm_box -->
<g id="node1" class="node">
<title>dcm_box</title>
<path fill="lightgrey" stroke="none" stroke-width="1.2" d="M187.25,-379.25C187.25,-379.25 15,-379.25 15,-379.25 9,-379.25 3,-373.25 3,-367.25 3,-367.25 3,-318 3,-318 3,-312 9,-306 15,-306 15,-306 187.25,-306 187.25,-306 193.25,-306 199.25,-312 199.25,-318 199.25,-318 199.25,-367.25 199.25,-367.25 199.25,-373.25 193.25,-379.25 187.25,-379.25"/>
<path fill="#fff0f0" stroke="none" d="M16,-307C16,-307 186.25,-307 186.25,-307 192.25,-307 198.25,-313 198.25,-319 198.25,-319 198.25,-366.25 198.25,-366.25 198.25,-372.25 192.25,-378.25 186.25,-378.25 186.25,-378.25 16,-378.25 16,-378.25 10,-378.25 4,-372.25 4,-366.25 4,-366.25 4,-319 4,-319 4,-313 10,-307 16,-307"/>
<text xml:space="preserve" text-anchor="start" x="77.12" y="-361.7" font-family="Helvetica,Arial,sans-serif" font-weight="bold" font-size="9.00">DCM Stack</text>
<polygon fill="#ee0000" stroke="none" points="9,-333.75 9,-351.5 51.5,-351.5 51.5,-333.75 9,-333.75"/>
<text xml:space="preserve" text-anchor="start" x="13" y="-338.95" font-family="Helvetica,Arial,sans-serif" font-size="9.00" fill="white">Gateway</text>
<polygon fill="#ee0000" stroke="none" points="55.5,-333.75 55.5,-351.5 95,-351.5 95,-333.75 55.5,-333.75"/>
<text xml:space="preserve" text-anchor="start" x="59.5" y="-338.95" font-family="Helvetica,Arial,sans-serif" font-size="9.00" fill="white">Catalog</text>
<polygon fill="#ee0000" stroke="none" points="99,-333.75 99,-351.5 156.5,-351.5 156.5,-333.75 99,-333.75"/>
<text xml:space="preserve" text-anchor="start" x="106" y="-338.95" font-family="Helvetica,Arial,sans-serif" font-size="9.00" fill="white">Placement</text>
<polygon fill="#ee0000" stroke="none" points="160.5,-333.75 160.5,-351.5 193.25,-351.5 193.25,-333.75 160.5,-333.75"/>
<text xml:space="preserve" text-anchor="start" x="164.5" y="-338.95" font-family="Helvetica,Arial,sans-serif" font-size="9.00" fill="white">Policy</text>
<polygon fill="#ee0000" stroke="none" points="9,-312 9,-329.75 51.5,-329.75 51.5,-312 9,-312"/>
<text xml:space="preserve" text-anchor="start" x="20.5" y="-317.2" font-family="Helvetica,Arial,sans-serif" font-size="9.00" fill="white">SPM</text>
<polygon fill="#e0e0e0" stroke="none" points="55.5,-312 55.5,-329.75 95,-329.75 95,-312 55.5,-312"/>
<text xml:space="preserve" text-anchor="start" x="63.62" y="-317.2" font-family="Helvetica,Arial,sans-serif" font-size="9.00">NATS</text>
<polygon fill="#e0e0e0" stroke="none" points="99,-312 99,-329.75 156.5,-329.75 156.5,-312 99,-312"/>
<text xml:space="preserve" text-anchor="start" x="103" y="-317.2" font-family="Helvetica,Arial,sans-serif" font-size="9.00">PostgreSQL</text>
<path fill="none" stroke="#cc0000" stroke-width="2" d="M16,-307C16,-307 186.25,-307 186.25,-307 192.25,-307 198.25,-313 198.25,-319 198.25,-319 198.25,-366.25 198.25,-366.25 198.25,-372.25 192.25,-378.25 186.25,-378.25 186.25,-378.25 16,-378.25 16,-378.25 10,-378.25 4,-372.25 4,-366.25 4,-366.25 4,-319 4,-319 4,-313 10,-307 16,-307"/>
</g>
<!-- bridge_box -->
<g id="node2" class="node">
<title>bridge_box</title>
<path fill="lightgrey" stroke="none" stroke-width="1.2" d="M190.25,-270C190.25,-270 12,-270 12,-270 6,-270 0,-264 0,-258 0,-258 0,-208.75 0,-208.75 0,-202.75 6,-196.75 12,-196.75 12,-196.75 190.25,-196.75 190.25,-196.75 196.25,-196.75 202.25,-202.75 202.25,-208.75 202.25,-208.75 202.25,-258 202.25,-258 202.25,-264 196.25,-270 190.25,-270"/>
<path fill="#f0e8ff" stroke="none" d="M13,-197.75C13,-197.75 189.25,-197.75 189.25,-197.75 195.25,-197.75 201.25,-203.75 201.25,-209.75 201.25,-209.75 201.25,-257 201.25,-257 201.25,-263 195.25,-269 189.25,-269 189.25,-269 13,-269 13,-269 7,-269 1,-263 1,-257 1,-257 1,-209.75 1,-209.75 1,-203.75 7,-197.75 13,-197.75"/>
<text xml:space="preserve" text-anchor="start" x="62.88" y="-252.45" font-family="Helvetica,Arial,sans-serif" font-weight="bold" font-size="9.00">DCM&#45;Koku Bridge</text>
<polygon fill="#7b68ee" stroke="none" points="6,-224.5 6,-242.25 80,-242.25 80,-224.5 6,-224.5"/>
<text xml:space="preserve" text-anchor="start" x="10" y="-229.7" font-family="Helvetica,Arial,sans-serif" font-size="9.00" fill="white">NATS consumer</text>
<polygon fill="#7b68ee" stroke="none" points="84,-224.5 84,-242.25 141.5,-242.25 141.5,-224.5 84,-224.5"/>
<text xml:space="preserve" text-anchor="start" x="90.25" y="-229.7" font-family="Helvetica,Arial,sans-serif" font-size="9.00" fill="white">Koku client</text>
<polygon fill="#7b68ee" stroke="none" points="145.5,-224.5 145.5,-242.25 196.25,-242.25 196.25,-224.5 145.5,-224.5"/>
<text xml:space="preserve" text-anchor="start" x="149.5" y="-229.7" font-family="Helvetica,Arial,sans-serif" font-size="9.00" fill="white">ID mapper</text>
<polygon fill="#7b68ee" stroke="none" points="6,-202.75 6,-220.5 80,-220.5 80,-202.75 6,-202.75"/>
<text xml:space="preserve" text-anchor="start" x="21.62" y="-207.95" font-family="Helvetica,Arial,sans-serif" font-size="9.00" fill="white">Cost proxy</text>
<polygon fill="#e0e0e0" stroke="none" points="84,-202.75 84,-220.5 141.5,-220.5 141.5,-202.75 84,-202.75"/>
<text xml:space="preserve" text-anchor="start" x="88" y="-207.95" font-family="Helvetica,Arial,sans-serif" font-size="9.00">PostgreSQL</text>
<path fill="none" stroke="#6644aa" stroke-width="2" d="M13,-197.75C13,-197.75 189.25,-197.75 189.25,-197.75 195.25,-197.75 201.25,-203.75 201.25,-209.75 201.25,-209.75 201.25,-257 201.25,-257 201.25,-263 195.25,-269 189.25,-269 189.25,-269 13,-269 13,-269 7,-269 1,-263 1,-257 1,-257 1,-209.75 1,-209.75 1,-203.75 7,-197.75 13,-197.75"/>
</g>
<!-- dcm_box&#45;&gt;bridge_box -->
<!-- koku_box -->
<g id="node3" class="node">
<title>koku_box</title>
<path fill="lightgrey" stroke="none" stroke-width="1.2" d="M171.5,-160.75C171.5,-160.75 30.75,-160.75 30.75,-160.75 24.75,-160.75 18.75,-154.75 18.75,-148.75 18.75,-148.75 18.75,-99.5 18.75,-99.5 18.75,-93.5 24.75,-87.5 30.75,-87.5 30.75,-87.5 171.5,-87.5 171.5,-87.5 177.5,-87.5 183.5,-93.5 183.5,-99.5 183.5,-99.5 183.5,-148.75 183.5,-148.75 183.5,-154.75 177.5,-160.75 171.5,-160.75"/>
<path fill="#f0fff0" stroke="none" d="M31.75,-88.5C31.75,-88.5 170.5,-88.5 170.5,-88.5 176.5,-88.5 182.5,-94.5 182.5,-100.5 182.5,-100.5 182.5,-147.75 182.5,-147.75 182.5,-153.75 176.5,-159.75 170.5,-159.75 170.5,-159.75 31.75,-159.75 31.75,-159.75 25.75,-159.75 19.75,-153.75 19.75,-147.75 19.75,-147.75 19.75,-100.5 19.75,-100.5 19.75,-94.5 25.75,-88.5 31.75,-88.5"/>
<text xml:space="preserve" text-anchor="start" x="76.75" y="-143.2" font-family="Helvetica,Arial,sans-serif" font-weight="bold" font-size="9.00">Koku Stack</text>
<polygon fill="#2e8b57" stroke="none" points="24.75,-115.25 24.75,-133 70.25,-133 70.25,-115.25 24.75,-115.25"/>
<text xml:space="preserve" text-anchor="start" x="28.75" y="-120.45" font-family="Helvetica,Arial,sans-serif" font-size="9.00" fill="white">Koku API</text>
<polygon fill="#2e8b57" stroke="none" points="74.25,-115.25 74.25,-133 131.75,-133 131.75,-115.25 74.25,-115.25"/>
<text xml:space="preserve" text-anchor="start" x="91.75" y="-120.45" font-family="Helvetica,Arial,sans-serif" font-size="9.00" fill="white">Masu</text>
<polygon fill="#2e8b57" stroke="none" points="135.75,-115.25 135.75,-133 177.5,-133 177.5,-115.25 135.75,-115.25"/>
<text xml:space="preserve" text-anchor="start" x="139.75" y="-120.45" font-family="Helvetica,Arial,sans-serif" font-size="9.00" fill="white">Workers</text>
<polygon fill="#2e8b57" stroke="none" points="24.75,-93.5 24.75,-111.25 70.25,-111.25 70.25,-93.5 24.75,-93.5"/>
<text xml:space="preserve" text-anchor="start" x="31" y="-98.7" font-family="Helvetica,Arial,sans-serif" font-size="9.00" fill="white">Listener</text>
<polygon fill="#e0e0e0" stroke="none" points="74.25,-93.5 74.25,-111.25 131.75,-111.25 131.75,-93.5 74.25,-93.5"/>
<text xml:space="preserve" text-anchor="start" x="78.25" y="-98.7" font-family="Helvetica,Arial,sans-serif" font-size="9.00">PostgreSQL</text>
<polygon fill="#e0e0e0" stroke="none" points="135.75,-93.5 135.75,-111.25 177.5,-111.25 177.5,-93.5 135.75,-93.5"/>
<text xml:space="preserve" text-anchor="start" x="144.62" y="-98.7" font-family="Helvetica,Arial,sans-serif" font-size="9.00">Redis</text>
<path fill="none" stroke="#228b22" stroke-width="2" d="M31.75,-88.5C31.75,-88.5 170.5,-88.5 170.5,-88.5 176.5,-88.5 182.5,-94.5 182.5,-100.5 182.5,-100.5 182.5,-147.75 182.5,-147.75 182.5,-153.75 176.5,-159.75 170.5,-159.75 170.5,-159.75 31.75,-159.75 31.75,-159.75 25.75,-159.75 19.75,-153.75 19.75,-147.75 19.75,-147.75 19.75,-100.5 19.75,-100.5 19.75,-94.5 25.75,-88.5 31.75,-88.5"/>
</g>
<!-- bridge_box&#45;&gt;koku_box -->
<!-- hosted_box -->
<g id="node4" class="node">
<title>hosted_box</title>
<path fill="lightgrey" stroke="none" stroke-width="1.2" d="M161,-51.5C161,-51.5 41.25,-51.5 41.25,-51.5 35.25,-51.5 29.25,-45.5 29.25,-39.5 29.25,-39.5 29.25,-12 29.25,-12 29.25,-6 35.25,0 41.25,0 41.25,0 161,0 161,0 167,0 173,-6 173,-12 173,-12 173,-39.5 173,-39.5 173,-45.5 167,-51.5 161,-51.5"/>
<path fill="#fffff0" stroke="none" d="M42.25,-1C42.25,-1 160,-1 160,-1 166,-1 172,-7 172,-13 172,-13 172,-38.5 172,-38.5 172,-44.5 166,-50.5 160,-50.5 160,-50.5 42.25,-50.5 42.25,-50.5 36.25,-50.5 30.25,-44.5 30.25,-38.5 30.25,-38.5 30.25,-13 30.25,-13 30.25,-7 36.25,-1 42.25,-1"/>
<text xml:space="preserve" text-anchor="start" x="39.25" y="-33.95" font-family="Helvetica,Arial,sans-serif" font-weight="bold" font-size="9.00">Hosted Clusters (HyperShift)</text>
<polygon fill="#daa520" stroke="none" points="35.25,-6 35.25,-23.75 99.12,-23.75 99.12,-6 35.25,-6"/>
<text xml:space="preserve" text-anchor="start" x="48.44" y="-11.2" font-family="Helvetica,Arial,sans-serif" font-size="9.00" fill="white">Cluster A</text>
<polygon fill="#daa520" stroke="none" points="103.12,-6 103.12,-23.75 167,-23.75 167,-6 103.12,-6"/>
<text xml:space="preserve" text-anchor="start" x="116.31" y="-11.2" font-family="Helvetica,Arial,sans-serif" font-size="9.00" fill="white">Cluster B</text>
<path fill="none" stroke="#b8860b" stroke-width="2" d="M42.25,-1C42.25,-1 160,-1 160,-1 166,-1 172,-7 172,-13 172,-13 172,-38.5 172,-38.5 172,-44.5 166,-50.5 160,-50.5 160,-50.5 42.25,-50.5 42.25,-50.5 36.25,-50.5 30.25,-44.5 30.25,-38.5 30.25,-38.5 30.25,-13 30.25,-13 30.25,-7 36.25,-1 42.25,-1"/>
</g>
<!-- koku_box&#45;&gt;hosted_box -->
<!-- koku_box&#45;&gt;hosted_box -->
<g id="edge7" class="edge">
<title>koku_box:s&#45;&gt;hosted_box:n</title>
<path fill="none" stroke="#228b22" stroke-width="2" stroke-dasharray="5,2" d="M125.08,-72.58C125.08,-72.58 125.08,-51.26 125.08,-51.26"/>
<polygon fill="#228b22" stroke="#228b22" stroke-width="2" points="120.88,-72.58 125.08,-84.58 129.28,-72.58 120.88,-72.58"/>
<text xml:space="preserve" text-anchor="middle" x="111.21" y="-70.82" font-family="Helvetica,Arial,sans-serif" font-size="8.00" fill="#228b22">metrics</text>
<text xml:space="preserve" text-anchor="middle" x="111.21" y="-62.57" font-family="Helvetica,Arial,sans-serif" font-size="8.00" fill="#228b22">uploads</text>
</g>
<!-- kv_sp -->
<g id="node5" class="node">
<title>kv_sp</title>
<path fill="#4169e1" stroke="#2850a8" stroke-width="1.2" d="M410.12,-360.62C410.12,-360.62 290.12,-360.62 290.12,-360.62 284.12,-360.62 278.12,-354.62 278.12,-348.62 278.12,-348.62 278.12,-336.62 278.12,-336.62 278.12,-330.62 284.12,-324.62 290.12,-324.62 290.12,-324.62 410.12,-324.62 410.12,-324.62 416.12,-324.62 422.12,-330.62 422.12,-336.62 422.12,-336.62 422.12,-348.62 422.12,-348.62 422.12,-354.62 416.12,-360.62 410.12,-360.62"/>
<text xml:space="preserve" text-anchor="middle" x="350.12" y="-338.95" font-family="Helvetica,Arial,sans-serif" font-size="9.00" fill="white">KubeVirt VM SP</text>
</g>
<!-- acm_sp -->
<g id="node6" class="node">
<title>acm_sp</title>
<path fill="#4169e1" stroke="#2850a8" stroke-width="1.2" d="M410.12,-251.38C410.12,-251.38 290.12,-251.38 290.12,-251.38 284.12,-251.38 278.12,-245.38 278.12,-239.38 278.12,-239.38 278.12,-227.38 278.12,-227.38 278.12,-221.38 284.12,-215.38 290.12,-215.38 290.12,-215.38 410.12,-215.38 410.12,-215.38 416.12,-215.38 422.12,-221.38 422.12,-227.38 422.12,-227.38 422.12,-239.38 422.12,-239.38 422.12,-245.38 416.12,-251.38 410.12,-251.38"/>
<text xml:space="preserve" text-anchor="middle" x="350.12" y="-229.7" font-family="Helvetica,Arial,sans-serif" font-size="9.00" fill="white">ACM Cluster SP</text>
</g>
<!-- kv_sp&#45;&gt;acm_sp -->
<!-- acm_sp&#45;&gt;hosted_box -->
<g id="edge6" class="edge">
<title>acm_sp&#45;&gt;hosted_box</title>
<path fill="none" stroke="#b8860b" stroke-width="2" d="M295.81,-214.97C295.81,-164.22 295.81,-26 295.81,-26 295.81,-26 187.82,-26 187.82,-26"/>
<polygon fill="#b8860b" stroke="#b8860b" stroke-width="2" points="187.82,-21.8 175.82,-26 187.82,-30.2 187.82,-21.8"/>
<text xml:space="preserve" text-anchor="middle" x="277.06" y="-67.14" font-family="Helvetica,Arial,sans-serif" font-size="8.00" fill="#b8860b">HyperShift</text>
</g>
<!-- acm_policies -->
<g id="node7" class="node">
<title>acm_policies</title>
<polygon fill="#fffde0" stroke="#b8860b" stroke-width="1.2" points="448.75,-152.5 313.5,-152.5 313.5,-95.75 454.75,-95.75 454.75,-146.5 448.75,-152.5"/>
<polyline fill="none" stroke="#b8860b" stroke-width="1.2" points="448.75,-152.5 448.75,-146.5"/>
<polyline fill="none" stroke="#b8860b" stroke-width="1.2" points="454.75,-146.5 448.75,-146.5"/>
<text xml:space="preserve" text-anchor="middle" x="384.12" y="-139.95" font-family="Helvetica,Arial,sans-serif" font-size="9.00" fill="#151515">ACM Policies:</text>
<text xml:space="preserve" text-anchor="middle" x="384.12" y="-130.2" font-family="Helvetica,Arial,sans-serif" font-size="9.00" fill="#151515">• Deploy koku&#45;metrics&#45;operator</text>
<text xml:space="preserve" text-anchor="middle" x="384.12" y="-120.45" font-family="Helvetica,Arial,sans-serif" font-size="9.00" fill="#151515"> &#160;on DCM clusters</text>
<text xml:space="preserve" text-anchor="middle" x="384.12" y="-110.7" font-family="Helvetica,Arial,sans-serif" font-size="9.00" fill="#151515">• Configure operator with</text>
<text xml:space="preserve" text-anchor="middle" x="384.12" y="-100.95" font-family="Helvetica,Arial,sans-serif" font-size="9.00" fill="#151515"> &#160;Koku ingress URL</text>
</g>
<!-- acm_sp&#45;&gt;acm_policies -->
</g>
</svg>
