<?xml version="1.0" encoding="UTF-8" standalone="no"?>
<!DOCTYPE svg PUBLIC "-//W3C//DTD SVG 1.1//EN"
 "http://www.w3.org/Graphics/SVG/1.1/DTD/svg11.dtd">
<!-- Generated by graphviz version 13.1.2 (20250808.2320)
 -->
<!-- Title: DeploymentTopology Pages: 1 -->
<svg width="2004pt" height="361pt"
 viewBox="0.00 0.00 2004.00 361.00" xmlns="http://www.w3.org/2000/svg" xmlns:xlink="http://www.w3.org/1999/xlink">
<g id="graph0" class="graph" transform="scale(1 1) rotate(0) translate(28.8 332.18)">
<title>DeploymentTopology</title>
<polygon fill="white" stroke="none" points="-28.8,28.8 -28.8,-332.18 1974.8,-332.18 1974.8,28.8 -28.8,28.8"/>
<g id="clust1" class="cluster">
<title>cluster_mgmt</title>
<path fill="#fafafa" stroke="#666666" stroke-width="2" d="M20,-114.5C20,-114.5 1926,-114.5 1926,-114.5 1932,-114.5 1938,-120.5 1938,-126.5 1938,-126.5 1938,-283.38 1938,-283.38 1938,-289.38 1932,-295.38 1926,-295.38 1926,-295.38 20,-295.38 20,-295.38 14,-295.38 8,-289.38 8,-283.38 8,-283.38 8,-126.5 8,-126.5 8,-120.5 14,-114.5 20,-114.5"/>
<text xml:space="preserve" text-anchor="start" x="881.88" y="-280.98" font-family="Helvetica,Arial,sans-serif" font-weight="bold" font-size="12.00" fill="#151515">Management Cluster (ACM Hub)</text>
</g>
<g id="clust2" class="cluster">
<title>cluster_dcm_stack</title>
<path fill="#fff0f0" stroke="#cc0000" stroke-width="1.5" d="M28,-196.12C28,-196.12 590,-196.12 590,-196.12 596,-196.12 602,-202.12 602,-208.12 602,-208.12 602,-254.62 602,-254.62 602,-260.62 596,-266.62 590,-266.62 590,-266.62 28,-266.62 28,-266.62 22,-266.62 16,-260.62 16,-254.62 16,-254.62 16,-208.12 16,-208.12 16,-202.12 22,-196.12 28,-196.12"/>
<text xml:space="preserve" text-anchor="start" x="282.75" y="-254.12" font-family="Helvetica,Arial,sans-serif" font-weight="bold" font-size="10.00" fill="#151515">DCM Stack</text>
</g>
<g id="clust3" class="cluster">
<title>cluster_bridge_stack</title>
<path fill="#f0e8ff" stroke="#6644aa" stroke-width="1.5" d="M627,-196.12C627,-196.12 1062,-196.12 1062,-196.12 1068,-196.12 1074,-202.12 1074,-208.12 1074,-208.12 1074,-254.62 1074,-254.62 1074,-260.62 1068,-266.62 1062,-266.62 1062,-266.62 627,-266.62 627,-266.62 621,-266.62 615,-260.62 615,-254.62 615,-254.62 615,-208.12 615,-208.12 615,-202.12 621,-196.12 627,-196.12"/>
<text xml:space="preserve" text-anchor="start" x="802.12" y="-254.12" font-family="Helvetica,Arial,sans-serif" font-weight="bold" font-size="10.00" fill="#151515">DCM&#45;Koku Bridge</text>
</g>
<g id="clust4" class="cluster">
<title>cluster_koku_stack</title>
<path fill="#f0fff0" stroke="#228b22" stroke-width="1.5" d="M1099,-196.12C1099,-196.12 1572,-196.12 1572,-196.12 1578,-196.12 1584,-202.12 1584,-208.12 1584,-208.12 1584,-254.62 1584,-254.62 1584,-260.62 1578,-266.62 1572,-266.62 1572,-266.62 1099,-266.62 1099,-266.62 1093,-266.62 1087,-260.62 1087,-254.62 1087,-254.62 1087,-208.12 1087,-208.12 1087,-202.12 1093,-196.12 1099,-196.12"/>
<text xml:space="preserve" text-anchor="start" x="1308.88" y="-254.12" font-family="Helvetica,Arial,sans-serif" font-weight="bold" font-size="10.00" fill="#151515">Koku Stack</text>
</g>
<g id="clust5" class="cluster">
<title>cluster_hosted</title>
<path fill="#fffff0" stroke="#b8860b" stroke-width="1.5" d="M248,-8C248,-8 468,-8 468,-8 474,-8 480,-14 480,-20 480,-20 480,-70.75 480,-70.75 480,-76.75 474,-82.75 468,-82.75 468,-82.75 248,-82.75 248,-82.75 242,-82.75 236,-76.75 236,-70.75 236,-70.75 236,-20 236,-20 236,-14 242,-8 248,-8"/>
<text xml:space="preserve" text-anchor="start" x="282.25" y="-69.3" font-family="Helvetica,Arial,sans-serif" font-weight="bold" font-size="11.00" fill="#151515">Hosted Clusters (HyperShift)</text>
</g>
<!-- dcm_gw -->
<g id="node1" class="node">
<title>dcm_gw</title>
<path fill="#ee0000" stroke="#cc0000" stroke-width="1.5" d="M66,-240.12C66,-240.12 36,-240.12 36,-240.12 30,-240.12 24,-234.12 24,-228.12 24,-228.12 24,-216.12 24,-216.12 24,-210.12 30,-204.12 36,-204.12 36,-204.12 66,-204.12 66,-204.12 72,-204.12 78,-210.12 78,-216.12 78,-216.12 78,-228.12 78,-228.12 78,-234.12 72,-240.12 66,-240.12"/>
<text xml:space="preserve" text-anchor="middle" x="51" y="-218.45" font-family="Helvetica,Arial,sans-serif" font-size="9.00" fill="white">Gateway</text>
</g>
<!-- dcm_cat -->
<g id="node2" class="node">
<title>dcm_cat</title>
<path fill="#ee0000" stroke="#cc0000" stroke-width="1.5" d="M149,-240.12C149,-240.12 119,-240.12 119,-240.12 113,-240.12 107,-234.12 107,-228.12 107,-228.12 107,-216.12 107,-216.12 107,-210.12 113,-204.12 119,-204.12 119,-204.12 149,-204.12 149,-204.12 155,-204.12 161,-210.12 161,-216.12 161,-216.12 161,-228.12 161,-228.12 161,-234.12 155,-240.12 149,-240.12"/>
<text xml:space="preserve" text-anchor="middle" x="134" y="-218.45" font-family="Helvetica,Arial,sans-serif" font-size="9.00" fill="white">Catalog</text>
</g>
<!-- dcm_plc -->
<g id="node3" class="node">
<title>dcm_plc</title>
<path fill="#ee0000" stroke="#cc0000" stroke-width="1.5" d="M237.75,-240.12C237.75,-240.12 202.25,-240.12 202.25,-240.12 196.25,-240.12 190.25,-234.12 190.25,-228.12 190.25,-228.12 190.25,-216.12 190.25,-216.12 190.25,-210.12 196.25,-204.12 202.25,-204.12 202.25,-204.12 237.75,-204.12 237.75,-204.12 243.75,-204.12 249.75,-210.12 249.75,-216.12 249.75,-216.12 249.75,-228.12 249.75,-228.12 249.75,-234.12 243.75,-240.12 237.75,-240.12"/>
<text xml:space="preserve" text-anchor="middle" x="220" y="-218.45" font-family="Helvetica,Arial,sans-serif" font-size="9.00" fill="white">Placement</text>
</g>
<!-- dcm_pol -->
<g id="node4" class="node">
<title>dcm_pol</title>
<path fill="#ee0000" stroke="#cc0000" stroke-width="1.5" d="M321,-240.12C321,-240.12 291,-240.12 291,-240.12 285,-240.12 279,-234.12 279,-228.12 279,-228.12 279,-216.12 279,-216.12 279,-210.12 285,-204.12 291,-204.12 291,-204.12 321,-204.12 321,-204.12 327,-204.12 333,-210.12 333,-216.12 333,-216.12 333,-228.12 333,-228.12 333,-234.12 327,-240.12 321,-240.12"/>
<text xml:space="preserve" text-anchor="middle" x="306" y="-218.45" font-family="Helvetica,Arial,sans-serif" font-size="9.00" fill="white">Policy</text>
</g>
<!-- dcm_spm -->
<g id="node5" class="node">
<title>dcm_spm</title>
<path fill="#ee0000" stroke="#cc0000" stroke-width="1.5" d="M404,-240.12C404,-240.12 374,-240.12 374,-240.12 368,-240.12 362,-234.12 362,-228.12 362,-228.12 362,-216.12 362,-216.12 362,-210.12 368,-204.12 374,-204.12 374,-204.12 404,-204.12 404,-204.12 410,-204.12 416,-210.12 416,-216.12 416,-216.12 416,-228.12 416,-228.12 416,-234.12 410,-240.12 404,-240.12"/>
<text xml:space="preserve" text-anchor="middle" x="389" y="-218.45" font-family="Helvetica,Arial,sans-serif" font-size="9.00" fill="white">SPM</text>
</g>
<!-- acm_sp -->
<g id="node19" class="node">
<title>acm_sp</title>
<path fill="#4169e1" stroke="#2850a8" stroke-width="1.5" d="M421.38,-158.5C421.38,-158.5 356.62,-158.5 356.62,-158.5 350.62,-158.5 344.62,-152.5 344.62,-146.5 344.62,-146.5 344.62,-134.5 344.62,-134.5 344.62,-128.5 350.62,-122.5 356.62,-122.5 356.62,-122.5 421.38,-122.5 421.38,-122.5 427.38,-122.5 433.38,-128.5 433.38,-134.5 433.38,-134.5 433.38,-146.5 433.38,-146.5 433.38,-152.5 427.38,-158.5 421.38,-158.5"/>
<text xml:space="preserve" text-anchor="middle" x="389" y="-136.25" font-family="Helvetica,Arial,sans-serif" font-size="10.00" fill="white">ACM Cluster SP</text>
</g>
<!-- dcm_spm&#45;&gt;acm_sp -->
<!-- dcm_nats -->
<g id="node6" class="node">
<title>dcm_nats</title>
<path fill="#e0e0e0" stroke="#999999" stroke-width="1.5" d="M487,-240.12C487,-240.12 457,-240.12 457,-240.12 451,-240.12 445,-234.12 445,-228.12 445,-228.12 445,-216.12 445,-216.12 445,-210.12 451,-204.12 457,-204.12 457,-204.12 487,-204.12 487,-204.12 493,-204.12 499,-210.12 499,-216.12 499,-216.12 499,-228.12 499,-228.12 499,-234.12 493,-240.12 487,-240.12"/>
<text xml:space="preserve" text-anchor="middle" x="472" y="-218.45" font-family="Helvetica,Arial,sans-serif" font-size="9.00" fill="#151515">NATS</text>
</g>
<!-- dcm_pg -->
<g id="node7" class="node">
<title>dcm_pg</title>
<path fill="#e0e0e0" stroke="#999999" stroke-width="1.5" d="M581.75,-240.12C581.75,-240.12 540.25,-240.12 540.25,-240.12 534.25,-240.12 528.25,-234.12 528.25,-228.12 528.25,-228.12 528.25,-216.12 528.25,-216.12 528.25,-210.12 534.25,-204.12 540.25,-204.12 540.25,-204.12 581.75,-204.12 581.75,-204.12 587.75,-204.12 593.75,-210.12 593.75,-216.12 593.75,-216.12 593.75,-228.12 593.75,-228.12 593.75,-234.12 587.75,-240.12 581.75,-240.12"/>
<text xml:space="preserve" text-anchor="middle" x="561" y="-218.45" font-family="Helvetica,Arial,sans-serif" font-size="9.00" fill="#151515">PostgreSQL</text>
</g>
<!-- br_nats -->
<g id="node8" class="node">
<title>br_nats</title>
<path fill="#7b68ee" stroke="#5b48ce" stroke-width="1.5" d="M693,-240.12C693,-240.12 635,-240.12 635,-240.12 629,-240.12 623,-234.12 623,-228.12 623,-228.12 623,-216.12 623,-216.12 623,-210.12 629,-204.12 635,-204.12 635,-204.12 693,-204.12 693,-204.12 699,-204.12 705,-210.12 705,-216.12 705,-216.12 705,-228.12 705,-228.12 705,-234.12 699,-240.12 693,-240.12"/>
<text xml:space="preserve" text-anchor="middle" x="664" y="-218.45" font-family="Helvetica,Arial,sans-serif" font-size="9.00" fill="white">NATS consumer</text>
</g>
<!-- br_koku -->
<g id="node9" class="node">
<title>br_koku</title>
<path fill="#7b68ee" stroke="#5b48ce" stroke-width="1.5" d="M783.5,-240.12C783.5,-240.12 746.5,-240.12 746.5,-240.12 740.5,-240.12 734.5,-234.12 734.5,-228.12 734.5,-228.12 734.5,-216.12 734.5,-216.12 734.5,-210.12 740.5,-204.12 746.5,-204.12 746.5,-204.12 783.5,-204.12 783.5,-204.12 789.5,-204.12 795.5,-210.12 795.5,-216.12 795.5,-216.12 795.5,-228.12 795.5,-228.12 795.5,-234.12 789.5,-240.12 783.5,-240.12"/>
<text xml:space="preserve" text-anchor="middle" x="765" y="-218.45" font-family="Helvetica,Arial,sans-serif" font-size="9.00" fill="white">Koku client</text>
</g>
<!-- br_id -->
<g id="node10" class="node">
<title>br_id</title>
<path fill="#7b68ee" stroke="#5b48ce" stroke-width="1.5" d="M871.38,-240.12C871.38,-240.12 836.62,-240.12 836.62,-240.12 830.62,-240.12 824.62,-234.12 824.62,-228.12 824.62,-228.12 824.62,-216.12 824.62,-216.12 824.62,-210.12 830.62,-204.12 836.62,-204.12 836.62,-204.12 871.38,-204.12 871.38,-204.12 877.38,-204.12 883.38,-210.12 883.38,-216.12 883.38,-216.12 883.38,-228.12 883.38,-228.12 883.38,-234.12 877.38,-240.12 871.38,-240.12"/>
<text xml:space="preserve" text-anchor="middle" x="854" y="-218.45" font-family="Helvetica,Arial,sans-serif" font-size="9.00" fill="white">ID mapper</text>
</g>
<!-- br_cost -->
<g id="node11" class="node">
<title>br_cost</title>
<path fill="#7b68ee" stroke="#5b48ce" stroke-width="1.5" d="M959.38,-240.12C959.38,-240.12 924.62,-240.12 924.62,-240.12 918.62,-240.12 912.62,-234.12 912.62,-228.12 912.62,-228.12 912.62,-216.12 912.62,-216.12 912.62,-210.12 918.62,-204.12 924.62,-204.12 924.62,-204.12 959.38,-204.12 959.38,-204.12 965.38,-204.12 971.38,-210.12 971.38,-216.12 971.38,-216.12 971.38,-228.12 971.38,-228.12 971.38,-234.12 965.38,-240.12 959.38,-240.12"/>
<text xml:space="preserve" text-anchor="middle" x="942" y="-218.45" font-family="Helvetica,Arial,sans-serif" font-size="9.00" fill="white">Cost proxy</text>
</g>
<!-- br_pg -->
<g id="node12" class="node">
<title>br_pg</title>
<path fill="#e0e0e0" stroke="#999999" stroke-width="1.5" d="M1053.75,-240.12C1053.75,-240.12 1012.25,-240.12 1012.25,-240.12 1006.25,-240.12 1000.25,-234.12 1000.25,-228.12 1000.25,-228.12 1000.25,-216.12 1000.25,-216.12 1000.25,-210.12 1006.25,-204.12 1012.25,-204.12 1012.25,-204.12 1053.75,-204.12 1053.75,-204.12 1059.75,-204.12 1065.75,-210.12 1065.75,-216.12 1065.75,-216.12 1065.75,-228.12 1065.75,-228.12 1065.75,-234.12 1059.75,-240.12 1053.75,-240.12"/>
<text xml:space="preserve" text-anchor="middle" x="1033" y="-218.45" font-family="Helvetica,Arial,sans-serif" font-size="9.00" fill="#151515">PostgreSQL</text>
</g>
<!-- k_api -->
<g id="node13" class="node">
<title>k_api</title>
<path fill="#2e8b57" stroke="#1a6b1a" stroke-width="1.5" d="M1137,-240.12C1137,-240.12 1107,-240.12 1107,-240.12 1101,-240.12 1095,-234.12 1095,-228.12 1095,-228.12 1095,-216.12 1095,-216.12 1095,-210.12 1101,-204.12 1107,-204.12 1107,-204.12 1137,-204.12 1137,-204.12 1143,-204.12 1149,-210.12 1149,-216.12 1149,-216.12 1149,-228.12 1149,-228.12 1149,-234.12 1143,-240.12 1137,-240.12"/>
<text xml:space="preserve" text-anchor="middle" x="1122" y="-218.45" font-family="Helvetica,Arial,sans-serif" font-size="9.00" fill="white">Koku API</text>
</g>
<!-- k_masu -->
<g id="node14" class="node">
<title>k_masu</title>
<path fill="#2e8b57" stroke="#1a6b1a" stroke-width="1.5" d="M1220,-240.12C1220,-240.12 1190,-240.12 1190,-240.12 1184,-240.12 1178,-234.12 1178,-228.12 1178,-228.12 1178,-216.12 1178,-216.12 1178,-210.12 1184,-204.12 1190,-204.12 1190,-204.12 1220,-204.12 1220,-204.12 1226,-204.12 1232,-210.12 1232,-216.12 1232,-216.12 1232,-228.12 1232,-228.12 1232,-234.12 1226,-240.12 1220,-240.12"/>
<text xml:space="preserve" text-anchor="middle" x="1205" y="-218.45" font-family="Helvetica,Arial,sans-serif" font-size="9.00" fill="white">Masu</text>
</g>
<!-- k_work -->
<g id="node15" class="node">
<title>k_work</title>
<path fill="#2e8b57" stroke="#1a6b1a" stroke-width="1.5" d="M1303,-240.12C1303,-240.12 1273,-240.12 1273,-240.12 1267,-240.12 1261,-234.12 1261,-228.12 1261,-228.12 1261,-216.12 1261,-216.12 1261,-210.12 1267,-204.12 1273,-204.12 1273,-204.12 1303,-204.12 1303,-204.12 1309,-204.12 1315,-210.12 1315,-216.12 1315,-216.12 1315,-228.12 1315,-228.12 1315,-234.12 1309,-240.12 1303,-240.12"/>
<text xml:space="preserve" text-anchor="middle" x="1288" y="-218.45" font-family="Helvetica,Arial,sans-serif" font-size="9.00" fill="white">Workers</text>
</g>
<!-- k_list -->
<g id="node16" class="node">
<title>k_list</title>
<path fill="#2e8b57" stroke="#1a6b1a" stroke-width="1.5" d="M1386,-240.12C1386,-240.12 1356,-240.12 1356,-240.12 1350,-240.12 1344,-234.12 1344,-228.12 1344,-228.12 1344,-216.12 1344,-216.12 1344,-210.12 1350,-204.12 1356,-204.12 1356,-204.12 1386,-204.12 1386,-204.12 1392,-204.12 1398,-210.12 1398,-216.12 1398,-216.12 1398,-228.12 1398,-228.12 1398,-234.12 1392,-240.12 1386,-240.12"/>
<text xml:space="preserve" text-anchor="middle" x="1371" y="-218.45" font-family="Helvetica,Arial,sans-serif" font-size="9.00" fill="white">Listener</text>
</g>
<!-- k_pg -->
<g id="node17" class="node">
<title>k_pg</title>
<path fill="#e0e0e0" stroke="#999999" stroke-width="1.5" d="M1480.75,-240.12C1480.75,-240.12 1439.25,-240.12 1439.25,-240.12 1433.25,-240.12 1427.25,-234.12 1427.25,-228.12 1427.25,-228.12 1427.25,-216.12 1427.25,-216.12 1427.25,-210.12 1433.25,-204.12 1439.25,-204.12 1439.25,-204.12 1480.75,-204.12 1480.75,-204.12 1486.75,-204.12 1492.75,-210.12 1492.75,-216.12 1492.75,-216.12 1492.75,-228.12 1492.75,-228.12 1492.75,-234.12 1486.75,-240.12 1480.75,-240.12"/>
<text xml:space="preserve" text-anchor="middle" x="1460" y="-218.45" font-family="Helvetica,Arial,sans-serif" font-size="9.00" fill="#151515">PostgreSQL</text>
</g>
<!-- k_redis -->
<g id="node18" class="node">
<title>k_redis</title>
<path fill="#e0e0e0" stroke="#999999" stroke-width="1.5" d="M1564,-240.12C1564,-240.12 1534,-240.12 1534,-240.12 1528,-240.12 1522,-234.12 1522,-228.12 1522,-228.12 1522,-216.12 1522,-216.12 1522,-210.12 1528,-204.12 1534,-204.12 1534,-204.12 1564,-204.12 1564,-204.12 1570,-204.12 1576,-210.12 1576,-216.12 1576,-216.12 1576,-228.12 1576,-228.12 1576,-234.12 1570,-240.12 1564,-240.12"/>
<text xml:space="preserve" text-anchor="middle" x="1549" y="-218.45" font-family="Helvetica,Arial,sans-serif" font-size="9.00" fill="#151515">Redis</text>
</g>
<!-- hc_a -->
<g id="node22" class="node">
<title>hc_a</title>
<path fill="#daa520" stroke="#b8860b" stroke-width="1.5" d="M331.62,-55.5C331.62,-55.5 256.38,-55.5 256.38,-55.5 250.38,-55.5 244.38,-49.5 244.38,-43.5 244.38,-43.5 244.38,-28 244.38,-28 244.38,-22 250.38,-16 256.38,-16 256.38,-16 331.62,-16 331.62,-16 337.62,-16 343.62,-22 343.62,-28 343.62,-28 343.62,-43.5 343.62,-43.5 343.62,-49.5 337.62,-55.5 331.62,-55.5"/>
<text xml:space="preserve" text-anchor="middle" x="294" y="-42" font-family="Helvetica,Arial,sans-serif" font-size="10.00" fill="white">Hosted Cluster A</text>
<text xml:space="preserve" text-anchor="middle" x="294" y="-31.5" font-family="Helvetica,Arial,sans-serif" font-size="10.00" fill="white">koku&#45;metrics&#45;op</text>
<text xml:space="preserve" text-anchor="middle" x="294" y="-21" font-family="Helvetica,Arial,sans-serif" font-size="10.00" fill="white">→ uploads to Koku</text>
</g>
<!-- acm_sp&#45;&gt;hc_a -->
<g id="edge2" class="edge">
<title>acm_sp&#45;&gt;hc_a</title>
<path fill="none" stroke="#b8860b" stroke-width="1.2" d="M371.7,-121.75C365.31,-115.13 358.03,-107.51 351.5,-100.5 340.68,-88.88 328.91,-75.89 318.85,-64.69"/>
<polygon fill="#b8860b" stroke="#b8860b" stroke-width="1.2" points="321.69,-62.61 312.41,-57.5 316.48,-67.28 321.69,-62.61"/>
<text xml:space="preserve" text-anchor="middle" x="373.25" y="-91.95" font-family="Helvetica,Arial,sans-serif" font-size="9.00" fill="#b8860b">HyperShift</text>
</g>
<!-- hc_b -->
<g id="node23" class="node">
<title>hc_b</title>
<path fill="#daa520" stroke="#b8860b" stroke-width="1.5" d="M459.62,-55.5C459.62,-55.5 384.38,-55.5 384.38,-55.5 378.38,-55.5 372.38,-49.5 372.38,-43.5 372.38,-43.5 372.38,-28 372.38,-28 372.38,-22 378.38,-16 384.38,-16 384.38,-16 459.62,-16 459.62,-16 465.62,-16 471.62,-22 471.62,-28 471.62,-28 471.62,-43.5 471.62,-43.5 471.62,-49.5 465.62,-55.5 459.62,-55.5"/>
<text xml:space="preserve" text-anchor="middle" x="422" y="-42" font-family="Helvetica,Arial,sans-serif" font-size="10.00" fill="white">Hosted Cluster B</text>
<text xml:space="preserve" text-anchor="middle" x="422" y="-31.5" font-family="Helvetica,Arial,sans-serif" font-size="10.00" fill="white">koku&#45;metrics&#45;op</text>
<text xml:space="preserve" text-anchor="middle" x="422" y="-21" font-family="Helvetica,Arial,sans-serif" font-size="10.00" fill="white">→ uploads to Koku</text>
</g>
<!-- acm_sp&#45;&gt;hc_b -->
<g id="edge3" class="edge">
<title>acm_sp&#45;&gt;hc_b</title>
<path fill="none" stroke="#b8860b" stroke-width="1.2" d="M394.6,-122.07C399.43,-107.04 406.51,-84.99 412.26,-67.08"/>
<polygon fill="#b8860b" stroke="#b8860b" stroke-width="1.2" points="415.53,-68.34 415.26,-57.75 408.87,-66.2 415.53,-68.34"/>
</g>
<!-- kv_sp -->
<g id="node20" class="node">
<title>kv_sp</title>
<path fill="#4169e1" stroke="#2850a8" stroke-width="1.5" d="M1681.38,-240.12C1681.38,-240.12 1616.62,-240.12 1616.62,-240.12 1610.62,-240.12 1604.62,-234.12 1604.62,-228.12 1604.62,-228.12 1604.62,-216.12 1604.62,-216.12 1604.62,-210.12 1610.62,-204.12 1616.62,-204.12 1616.62,-204.12 1681.38,-204.12 1681.38,-204.12 1687.38,-204.12 1693.38,-210.12 1693.38,-216.12 1693.38,-216.12 1693.38,-228.12 1693.38,-228.12 1693.38,-234.12 1687.38,-240.12 1681.38,-240.12"/>
<text xml:space="preserve" text-anchor="middle" x="1649" y="-217.88" font-family="Helvetica,Arial,sans-serif" font-size="10.00" fill="white">KubeVirt VM SP</text>
</g>
<!-- policy_note -->
<g id="node21" class="node">
<title>policy_note</title>
<polygon fill="#fffde0" stroke="#b8860b" stroke-width="1.5" points="1923.62,-240.75 1722.38,-240.75 1722.38,-203.5 1929.62,-203.5 1929.62,-234.75 1923.62,-240.75"/>
<polyline fill="none" stroke="#b8860b" stroke-width="1.5" points="1923.62,-240.75 1923.62,-234.75"/>
<polyline fill="none" stroke="#b8860b" stroke-width="1.5" points="1929.62,-234.75 1923.62,-234.75"/>
<text xml:space="preserve" text-anchor="middle" x="1826" y="-228.2" font-family="Helvetica,Arial,sans-serif" font-size="9.00" fill="#151515">ACM Policies:</text>
<text xml:space="preserve" text-anchor="middle" x="1826" y="-218.45" font-family="Helvetica,Arial,sans-serif" font-size="9.00" fill="#151515">• Deploy koku&#45;metrics&#45;operator on dcm clusters</text>
<text xml:space="preserve" text-anchor="middle" x="1826" y="-208.7" font-family="Helvetica,Arial,sans-serif" font-size="9.00" fill="#151515">• Configure operator with Koku ingress URL</text>
</g>
<!-- hc_a&#45;&gt;k_api -->
<g id="edge4" class="edge">
<title>hc_a&#45;&gt;k_api</title>
<path fill="none" stroke="#228b22" stroke-width="1.2" stroke-dasharray="5,2" d="M315.55,-56.16C327.3,-65.67 342.56,-76.41 358,-82.75 367.4,-86.61 1071.46,-192.62 1081,-196.12 1082.61,-196.72 1084.23,-197.38 1085.85,-198.09"/>
<polygon fill="#228b22" stroke="#228b22" stroke-width="1.2" points="1084.18,-201.17 1094.69,-202.56 1087.35,-194.92 1084.18,-201.17"/>
<text xml:space="preserve" text-anchor="middle" x="852.97" y="-136.82" font-family="Helvetica,Arial,sans-serif" font-size="9.00" fill="#228b22">uploads</text>
</g>
</g>
</svg>
