<?xml version="1.0" encoding="UTF-8" standalone="no"?>
<!DOCTYPE svg PUBLIC "-//W3C//DTD SVG 1.1//EN"
 "http://www.w3.org/Graphics/SVG/1.1/DTD/svg11.dtd">
<!-- Generated by graphviz version 13.1.2 (20250808.2320)
 -->
<!-- Title: ReadmeOverview Pages: 1 -->
<svg width="727pt" height="467pt"
 viewBox="0.00 0.00 727.00 467.00" xmlns="http://www.w3.org/2000/svg" xmlns:xlink="http://www.w3.org/1999/xlink">
<g id="graph0" class="graph" transform="scale(1 1) rotate(0) translate(28.8 437.8)">
<title>ReadmeOverview</title>
<polygon fill="white" stroke="none" points="-28.8,28.8 -28.8,-437.8 697.8,-437.8 697.8,28.8 -28.8,28.8"/>
<text xml:space="preserve" text-anchor="start" x="159.75" y="-393.65" font-family="Helvetica,Arial,sans-serif" font-weight="bold" font-size="13.00">Cost Management Service Provider — End&#45;to&#45;End Flow</text>
<g id="clust1" class="cluster">
<title>cluster_dcm</title>
<path fill="#fff0f0" stroke="#cc0000" stroke-width="1.5" d="M20,-8C20,-8 305,-8 305,-8 311,-8 317,-14 317,-20 317,-20 317,-367.5 317,-367.5 317,-373.5 311,-379.5 305,-379.5 305,-379.5 20,-379.5 20,-379.5 14,-379.5 8,-373.5 8,-367.5 8,-367.5 8,-20 8,-20 8,-14 14,-8 20,-8"/>
<text xml:space="preserve" text-anchor="start" x="117.12" y="-367" font-family="Helvetica,Arial,sans-serif" font-weight="bold" font-size="10.00" fill="#151515">DCM Control Plane</text>
</g>
<g id="clust3" class="cluster">
<title>cluster_koku</title>
<path fill="#f0fff0" stroke="#228b22" stroke-width="1.5" d="M355,-80C355,-80 475,-80 475,-80 481,-80 487,-86 487,-92 487,-92 487,-221 487,-221 487,-227 481,-233 475,-233 475,-233 355,-233 355,-233 349,-233 343,-227 343,-221 343,-221 343,-92 343,-92 343,-86 349,-80 355,-80"/>
<text xml:space="preserve" text-anchor="start" x="356.5" y="-220.5" font-family="Helvetica,Arial,sans-serif" font-weight="bold" font-size="10.00" fill="#151515">Koku (Cost Management)</text>
</g>
<g id="clust4" class="cluster">
<title>cluster_infra</title>
<path fill="#fffff0" stroke="#b8860b" stroke-width="1.5" d="M511,-80C511,-80 649,-80 649,-80 655,-80 661,-86 661,-92 661,-92 661,-146.5 661,-146.5 661,-152.5 655,-158.5 649,-158.5 649,-158.5 511,-158.5 511,-158.5 505,-158.5 499,-152.5 499,-146.5 499,-146.5 499,-92 499,-92 499,-86 505,-80 511,-80"/>
<text xml:space="preserve" text-anchor="start" x="530.88" y="-146" font-family="Helvetica,Arial,sans-serif" font-weight="bold" font-size="10.00" fill="#151515">Provisioned Clusters</text>
</g>
<!-- tenant -->
<g id="node1" class="node">
<title>tenant</title>
<path fill="#f0f0f0" stroke="#888888" stroke-width="1.2" d="M123,-349C123,-349 93,-349 93,-349 87,-349 81,-343 81,-337 81,-337 81,-325 81,-325 81,-319 87,-313 93,-313 93,-313 123,-313 123,-313 129,-313 135,-319 135,-325 135,-325 135,-337 135,-337 135,-343 129,-349 123,-349"/>
<text xml:space="preserve" text-anchor="middle" x="108" y="-326.75" font-family="Helvetica,Arial,sans-serif" font-size="10.00" fill="#151515">Tenant</text>
</g>
<!-- catalog -->
<g id="node3" class="node">
<title>catalog</title>
<path fill="#ee0000" stroke="#cc0000" stroke-width="1.2" d="M238,-277C238,-277 174,-277 174,-277 168,-277 162,-271 162,-265 162,-265 162,-253 162,-253 162,-247 168,-241 174,-241 174,-241 238,-241 238,-241 244,-241 250,-247 250,-253 250,-253 250,-265 250,-265 250,-271 244,-277 238,-277"/>
<text xml:space="preserve" text-anchor="middle" x="206" y="-254.75" font-family="Helvetica,Arial,sans-serif" font-size="10.00" fill="white">Catalog + Policy</text>
</g>
<!-- tenant&#45;&gt;catalog -->
<g id="edge2" class="edge">
<title>tenant&#45;&gt;catalog</title>
<path fill="none" stroke="#cc0000" stroke-width="1.2" d="M135.48,-331C153.48,-331 173.69,-331 173.69,-331 173.69,-331 173.69,-287.36 173.69,-287.36"/>
<polygon fill="#cc0000" stroke="#cc0000" stroke-width="1.2" points="176.49,-287.36 173.69,-279.36 170.89,-287.36 176.49,-287.36"/>
<text xml:space="preserve" text-anchor="middle" x="162.44" y="-320.68" font-family="Helvetica,Arial,sans-serif" font-size="8.00" fill="#cc0000">order cluster</text>
</g>
<!-- operator_node -->
<g id="node2" class="node">
<title>operator_node</title>
<path fill="#f0f0f0" stroke="#888888" stroke-width="1.2" d="M266.62,-349C266.62,-349 197.38,-349 197.38,-349 191.38,-349 185.38,-343 185.38,-337 185.38,-337 185.38,-325 185.38,-325 185.38,-319 191.38,-313 197.38,-313 197.38,-313 266.62,-313 266.62,-313 272.62,-313 278.62,-319 278.62,-325 278.62,-325 278.62,-337 278.62,-337 278.62,-343 272.62,-349 266.62,-349"/>
<text xml:space="preserve" text-anchor="middle" x="232" y="-326.75" font-family="Helvetica,Arial,sans-serif" font-size="10.00" fill="#151515">Platform Operator</text>
</g>
<!-- operator_node&#45;&gt;catalog -->
<g id="edge3" class="edge">
<title>operator_node&#45;&gt;catalog</title>
<path fill="none" stroke="#cc0000" stroke-width="1.2" stroke-dasharray="5,2" d="M217.69,-312.46C217.69,-312.46 217.69,-287.05 217.69,-287.05"/>
<polygon fill="#cc0000" stroke="#cc0000" stroke-width="1.2" points="220.49,-287.05 217.69,-279.05 214.89,-287.05 220.49,-287.05"/>
<text xml:space="preserve" text-anchor="middle" x="201.56" y="-300.4" font-family="Helvetica,Arial,sans-serif" font-size="8.00" fill="#cc0000">configure</text>
</g>
<!-- acm_sp -->
<g id="node4" class="node">
<title>acm_sp</title>
<path fill="#4169e1" stroke="#2850a8" stroke-width="1.2" d="M96.38,-202.5C96.38,-202.5 31.62,-202.5 31.62,-202.5 25.62,-202.5 19.62,-196.5 19.62,-190.5 19.62,-190.5 19.62,-178.5 19.62,-178.5 19.62,-172.5 25.62,-166.5 31.62,-166.5 31.62,-166.5 96.38,-166.5 96.38,-166.5 102.38,-166.5 108.38,-172.5 108.38,-178.5 108.38,-178.5 108.38,-190.5 108.38,-190.5 108.38,-196.5 102.38,-202.5 96.38,-202.5"/>
<text xml:space="preserve" text-anchor="middle" x="64" y="-180.25" font-family="Helvetica,Arial,sans-serif" font-size="10.00" fill="white">ACM Cluster SP</text>
</g>
<!-- catalog&#45;&gt;acm_sp -->
<g id="edge4" class="edge">
<title>catalog&#45;&gt;acm_sp</title>
<path fill="none" stroke="#cc0000" stroke-width="1.2" d="M161.69,-265C130.65,-265 94.69,-265 94.69,-265 94.69,-265 94.69,-212.58 94.69,-212.58"/>
<polygon fill="#cc0000" stroke="#cc0000" stroke-width="1.2" points="97.49,-212.58 94.69,-204.58 91.89,-212.58 97.49,-212.58"/>
</g>
<!-- cost_sp -->
<g id="node7" class="node">
<title>cost_sp</title>
<path fill="#228b22" stroke="#1a6b1a" stroke-width="1.2" d="M241.38,-202.5C241.38,-202.5 170.62,-202.5 170.62,-202.5 164.62,-202.5 158.62,-196.5 158.62,-190.5 158.62,-190.5 158.62,-178.5 158.62,-178.5 158.62,-172.5 164.62,-166.5 170.62,-166.5 170.62,-166.5 241.38,-166.5 241.38,-166.5 247.38,-166.5 253.38,-172.5 253.38,-178.5 253.38,-178.5 253.38,-190.5 253.38,-190.5 253.38,-196.5 247.38,-202.5 241.38,-202.5"/>
<text xml:space="preserve" text-anchor="middle" x="206" y="-185.5" font-family="Helvetica,Arial,sans-serif" font-size="10.00" fill="white">koku&#45;cost&#45;provider</text>
<text xml:space="preserve" text-anchor="middle" x="206" y="-175" font-family="Helvetica,Arial,sans-serif" font-size="10.00" fill="white">(this project)</text>
</g>
<!-- catalog&#45;&gt;cost_sp -->
<g id="edge8" class="edge">
<title>catalog&#45;&gt;cost_sp</title>
<path fill="none" stroke="#228b22" stroke-width="1.2" d="M206,-240.58C206,-240.58 206,-212.78 206,-212.78"/>
<polygon fill="#228b22" stroke="#228b22" stroke-width="1.2" points="208.8,-212.78 206,-204.78 203.2,-212.78 208.8,-212.78"/>
</g>
<!-- nats -->
<g id="node5" class="node">
<title>nats</title>
<path fill="#e0e0e0" stroke="#999999" stroke-width="1.2" d="M128,-128C128,-128 98,-128 98,-128 92,-128 86,-122 86,-116 86,-116 86,-104 86,-104 86,-98 92,-92 98,-92 98,-92 128,-92 128,-92 134,-92 140,-98 140,-104 140,-104 140,-116 140,-116 140,-122 134,-128 128,-128"/>
<text xml:space="preserve" text-anchor="middle" x="113" y="-105.75" font-family="Helvetica,Arial,sans-serif" font-size="10.00" fill="#151515">NATS</text>
</g>
<!-- acm_sp&#45;&gt;nats -->
<g id="edge5" class="edge">
<title>acm_sp&#45;&gt;nats</title>
<path fill="none" stroke="#999999" stroke-width="1.2" stroke-dasharray="5,2" d="M97.19,-166.08C97.19,-166.08 97.19,-138.28 97.19,-138.28"/>
<polygon fill="#999999" stroke="#999999" stroke-width="1.2" points="99.99,-138.28 97.19,-130.28 94.39,-138.28 99.99,-138.28"/>
<text xml:space="preserve" text-anchor="middle" x="72.81" y="-152.83" font-family="Helvetica,Arial,sans-serif" font-size="8.00" fill="#555555">READY event</text>
</g>
<!-- bridge -->
<g id="node6" class="node">
<title>bridge</title>
<path fill="#7b68ee" stroke="#5b48ce" stroke-width="1.2" d="M194.38,-56C194.38,-56 129.62,-56 129.62,-56 123.62,-56 117.62,-50 117.62,-44 117.62,-44 117.62,-32 117.62,-32 117.62,-26 123.62,-20 129.62,-20 129.62,-20 194.38,-20 194.38,-20 200.38,-20 206.38,-26 206.38,-32 206.38,-32 206.38,-44 206.38,-44 206.38,-50 200.38,-56 194.38,-56"/>
<text xml:space="preserve" text-anchor="middle" x="162" y="-39" font-family="Helvetica,Arial,sans-serif" font-size="10.00" fill="white">Bridge</text>
<text xml:space="preserve" text-anchor="middle" x="162" y="-28.5" font-family="Helvetica,Arial,sans-serif" font-size="10.00" fill="white">(auto&#45;enrollment)</text>
</g>
<!-- nats&#45;&gt;bridge -->
<g id="edge6" class="edge">
<title>nats&#45;&gt;bridge</title>
<path fill="none" stroke="#6644aa" stroke-width="1.2" d="M128.81,-91.46C128.81,-91.46 128.81,-66.05 128.81,-66.05"/>
<polygon fill="#6644aa" stroke="#6644aa" stroke-width="1.2" points="131.61,-66.05 128.81,-58.05 126.01,-66.05 131.61,-66.05"/>
</g>
<!-- bridge&#45;&gt;catalog -->
<g id="edge7" class="edge">
<title>bridge&#45;&gt;catalog</title>
<path fill="none" stroke="#cc0000" stroke-width="1.2" d="M149.31,-56.33C149.31,-108.32 149.31,-253 149.31,-253 149.31,-253 151.8,-253 151.8,-253"/>
<polygon fill="#cc0000" stroke="#cc0000" stroke-width="1.2" points="151.8,-255.8 159.8,-253 151.8,-250.2 151.8,-255.8"/>
<text xml:space="preserve" text-anchor="middle" x="130.19" y="-164.81" font-family="Helvetica,Arial,sans-serif" font-size="8.00" fill="#cc0000">create cost</text>
<text xml:space="preserve" text-anchor="middle" x="130.19" y="-156.56" font-family="Helvetica,Arial,sans-serif" font-size="8.00" fill="#cc0000">instance</text>
</g>
<!-- koku_api -->
<g id="node8" class="node">
<title>koku_api</title>
<path fill="#2e8b57" stroke="#1a6b1a" stroke-width="1.2" d="M462.75,-202.5C462.75,-202.5 367.25,-202.5 367.25,-202.5 361.25,-202.5 355.25,-196.5 355.25,-190.5 355.25,-190.5 355.25,-178.5 355.25,-178.5 355.25,-172.5 361.25,-166.5 367.25,-166.5 367.25,-166.5 462.75,-166.5 462.75,-166.5 468.75,-166.5 474.75,-172.5 474.75,-178.5 474.75,-178.5 474.75,-190.5 474.75,-190.5 474.75,-196.5 468.75,-202.5 462.75,-202.5"/>
<text xml:space="preserve" text-anchor="middle" x="415" y="-185.5" font-family="Helvetica,Arial,sans-serif" font-size="10.00" fill="white">Sources + Cost Models</text>
<text xml:space="preserve" text-anchor="middle" x="415" y="-175" font-family="Helvetica,Arial,sans-serif" font-size="10.00" fill="white">+ Reports API</text>
</g>
<!-- cost_sp&#45;&gt;koku_api -->
<g id="edge9" class="edge">
<title>cost_sp&#45;&gt;koku_api</title>
<path fill="none" stroke="#228b22" stroke-width="2" d="M253.95,-185C253.95,-185 341.9,-185 341.9,-185"/>
<polygon fill="#228b22" stroke="#228b22" stroke-width="2" points="341.9,-188.5 351.9,-185 341.9,-181.5 341.9,-188.5"/>
<text xml:space="preserve" text-anchor="middle" x="279.55" y="-185.65" font-family="Helvetica,Arial,sans-serif" font-size="8.00" fill="#228b22">REST API</text>
</g>
<!-- koku_pipe -->
<g id="node9" class="node">
<title>koku_pipe</title>
<path fill="#2e8b57" stroke="#1a6b1a" stroke-width="1.2" d="M448.5,-128C448.5,-128 381.5,-128 381.5,-128 375.5,-128 369.5,-122 369.5,-116 369.5,-116 369.5,-104 369.5,-104 369.5,-98 375.5,-92 381.5,-92 381.5,-92 448.5,-92 448.5,-92 454.5,-92 460.5,-98 460.5,-104 460.5,-104 460.5,-116 460.5,-116 460.5,-122 454.5,-128 448.5,-128"/>
<text xml:space="preserve" text-anchor="middle" x="415" y="-105.75" font-family="Helvetica,Arial,sans-serif" font-size="10.00" fill="white">Metering Pipeline</text>
</g>
<!-- koku_api&#45;&gt;koku_pipe -->
<!-- clusters -->
<g id="node10" class="node">
<title>clusters</title>
<path fill="#daa520" stroke="#b8860b" stroke-width="1.2" d="M637.12,-128C637.12,-128 522.88,-128 522.88,-128 516.88,-128 510.88,-122 510.88,-116 510.88,-116 510.88,-104 510.88,-104 510.88,-98 516.88,-92 522.88,-92 522.88,-92 637.12,-92 637.12,-92 643.12,-92 649.12,-98 649.12,-104 649.12,-104 649.12,-116 649.12,-116 649.12,-122 643.12,-128 637.12,-128"/>
<text xml:space="preserve" text-anchor="middle" x="580" y="-105.75" font-family="Helvetica,Arial,sans-serif" font-size="10.00" fill="white">Cluster A &#160;· &#160;Cluster B &#160;· &#160;…</text>
</g>
<!-- clusters&#45;&gt;koku_pipe -->
<g id="edge10" class="edge">
<title>clusters&#45;&gt;koku_pipe</title>
<path fill="none" stroke="#228b22" stroke-width="2" stroke-dasharray="5,2" d="M510.5,-110C510.5,-110 473.98,-110 473.98,-110"/>
<polygon fill="#228b22" stroke="#228b22" stroke-width="2" points="473.98,-106.5 463.98,-110 473.98,-113.5 473.98,-106.5"/>
<text xml:space="preserve" text-anchor="middle" x="492.24" y="-102.4" font-family="Helvetica,Arial,sans-serif" font-size="8.00" fill="#228b22">metrics uploads</text>
</g>
</g>
</svg>
