<?xml version="1.0" encoding="UTF-8" standalone="no"?>
<!DOCTYPE svg PUBLIC "-//W3C//DTD SVG 1.1//EN"
 "http://www.w3.org/Graphics/SVG/1.1/DTD/svg11.dtd">
<!-- Generated by graphviz version 13.1.2 (20250808.2320)
 -->
<!-- Title: SystemLandscape Pages: 1 -->
<svg width="666pt" height="638pt"
 viewBox="0.00 0.00 666.00 638.00" xmlns="http://www.w3.org/2000/svg" xmlns:xlink="http://www.w3.org/1999/xlink">
<g id="graph0" class="graph" transform="scale(1 1) rotate(0) translate(28.8 609.55)">
<title>SystemLandscape</title>
<polygon fill="white" stroke="none" points="-28.8,28.8 -28.8,-609.55 636.8,-609.55 636.8,28.8 -28.8,28.8"/>
<g id="clust1" class="cluster">
<title>cluster_dc</title>
<path fill="#fafafa" stroke="#666666" stroke-width="2" d="M20,-8C20,-8 588,-8 588,-8 594,-8 600,-14 600,-20 600,-20 600,-560.75 600,-560.75 600,-566.75 594,-572.75 588,-572.75 588,-572.75 20,-572.75 20,-572.75 14,-572.75 8,-566.75 8,-560.75 8,-560.75 8,-20 8,-20 8,-14 14,-8 20,-8"/>
<text xml:space="preserve" text-anchor="start" x="266.12" y="-557.4" font-family="Helvetica,Arial,sans-serif" font-weight="bold" font-size="13.00" fill="#151515">Data Center</text>
</g>
<g id="clust2" class="cluster">
<title>cluster_dcm</title>
<path fill="#fff0f0" stroke="#cc0000" stroke-width="2" d="M28,-154C28,-154 120,-154 120,-154 126,-154 132,-160 132,-166 132,-166 132,-531.25 132,-531.25 132,-537.25 126,-543.25 120,-543.25 120,-543.25 28,-543.25 28,-543.25 22,-543.25 16,-537.25 16,-531.25 16,-531.25 16,-166 16,-166 16,-160 22,-154 28,-154"/>
<text xml:space="preserve" text-anchor="start" x="23.75" y="-529.8" font-family="Helvetica,Arial,sans-serif" font-weight="bold" font-size="11.00" fill="#151515">DCM Control Plane</text>
</g>
<g id="clust3" class="cluster">
<title>cluster_koku</title>
<path fill="#f0fff0" stroke="#228b22" stroke-width="2" d="M219,-244.25C219,-244.25 360,-244.25 360,-244.25 366,-244.25 372,-250.25 372,-256.25 372,-256.25 372,-531.25 372,-531.25 372,-537.25 366,-543.25 360,-543.25 360,-543.25 219,-543.25 219,-543.25 213,-543.25 207,-537.25 207,-531.25 207,-531.25 207,-256.25 207,-256.25 207,-250.25 213,-244.25 219,-244.25"/>
<text xml:space="preserve" text-anchor="start" x="225" y="-529.8" font-family="Helvetica,Arial,sans-serif" font-weight="bold" font-size="11.00" fill="#151515">Koku / cost management</text>
</g>
<g id="clust4" class="cluster">
<title>cluster_infra</title>
<path fill="#fffff0" stroke="#b8860b" stroke-width="1.5" d="M152,-81C152,-81 446,-81 446,-81 452,-81 458,-87 458,-93 458,-93 458,-213.25 458,-213.25 458,-219.25 452,-225.25 446,-225.25 446,-225.25 152,-225.25 152,-225.25 146,-225.25 140,-219.25 140,-213.25 140,-213.25 140,-93 140,-93 140,-87 146,-81 152,-81"/>
<text xml:space="preserve" text-anchor="start" x="263" y="-211.8" font-family="Helvetica,Arial,sans-serif" font-weight="bold" font-size="11.00" fill="#151515">Infrastructure</text>
</g>
<!-- catalog -->
<g id="node1" class="node">
<title>catalog</title>
<path fill="#ee0000" stroke="#cc0000" stroke-width="1.5" d="M101,-516C101,-516 71,-516 71,-516 65,-516 59,-510 59,-504 59,-504 59,-492 59,-492 59,-486 65,-480 71,-480 71,-480 101,-480 101,-480 107,-480 113,-486 113,-492 113,-492 113,-504 113,-504 113,-510 107,-516 101,-516"/>
<text xml:space="preserve" text-anchor="middle" x="86" y="-493.75" font-family="Helvetica,Arial,sans-serif" font-size="10.00" fill="white">Catalog</text>
</g>
<!-- placement -->
<g id="node2" class="node">
<title>placement</title>
<path fill="#ee0000" stroke="#cc0000" stroke-width="1.5" d="M105.25,-443C105.25,-443 66.75,-443 66.75,-443 60.75,-443 54.75,-437 54.75,-431 54.75,-431 54.75,-419 54.75,-419 54.75,-413 60.75,-407 66.75,-407 66.75,-407 105.25,-407 105.25,-407 111.25,-407 117.25,-413 117.25,-419 117.25,-419 117.25,-431 117.25,-431 117.25,-437 111.25,-443 105.25,-443"/>
<text xml:space="preserve" text-anchor="middle" x="86" y="-420.75" font-family="Helvetica,Arial,sans-serif" font-size="10.00" fill="white">Placement</text>
</g>
<!-- catalog&#45;&gt;placement -->
<g id="edge1" class="edge">
<title>catalog&#45;&gt;placement</title>
<path fill="none" stroke="#555555" stroke-width="1.2" d="M86,-479.45C86,-472.06 86,-463.25 86,-454.94"/>
<polygon fill="#555555" stroke="#555555" stroke-width="1.2" points="89.5,-455.16 86,-445.16 82.5,-455.16 89.5,-455.16"/>
</g>
<!-- policy -->
<g id="node3" class="node">
<title>policy</title>
<path fill="#ee0000" stroke="#cc0000" stroke-width="1.5" d="M110.12,-370C110.12,-370 61.88,-370 61.88,-370 55.88,-370 49.88,-364 49.88,-358 49.88,-358 49.88,-346 49.88,-346 49.88,-340 55.88,-334 61.88,-334 61.88,-334 110.12,-334 110.12,-334 116.12,-334 122.12,-340 122.12,-346 122.12,-346 122.12,-358 122.12,-358 122.12,-364 116.12,-370 110.12,-370"/>
<text xml:space="preserve" text-anchor="middle" x="86" y="-347.75" font-family="Helvetica,Arial,sans-serif" font-size="10.00" fill="white">Policy (OPA)</text>
</g>
<!-- placement&#45;&gt;policy -->
<g id="edge2" class="edge">
<title>placement&#45;&gt;policy</title>
<path fill="none" stroke="#555555" stroke-width="1.2" d="M86,-406.45C86,-399.06 86,-390.25 86,-381.94"/>
<polygon fill="#555555" stroke="#555555" stroke-width="1.2" points="89.5,-382.16 86,-372.16 82.5,-382.16 89.5,-382.16"/>
</g>
<!-- spm -->
<g id="node4" class="node">
<title>spm</title>
<path fill="#ee0000" stroke="#cc0000" stroke-width="1.5" d="M111.62,-288.25C111.62,-288.25 60.37,-288.25 60.37,-288.25 54.38,-288.25 48.38,-282.25 48.38,-276.25 48.38,-276.25 48.38,-264.25 48.38,-264.25 48.38,-258.25 54.38,-252.25 60.38,-252.25 60.38,-252.25 111.62,-252.25 111.62,-252.25 117.62,-252.25 123.62,-258.25 123.62,-264.25 123.62,-264.25 123.62,-276.25 123.62,-276.25 123.62,-282.25 117.62,-288.25 111.62,-288.25"/>
<text xml:space="preserve" text-anchor="middle" x="86" y="-266" font-family="Helvetica,Arial,sans-serif" font-size="10.00" fill="white">SPM / SPRM</text>
</g>
<!-- policy&#45;&gt;spm -->
<g id="edge3" class="edge">
<title>policy&#45;&gt;spm</title>
<path fill="none" stroke="#555555" stroke-width="1.2" d="M86,-333.3C86,-323.7 86,-311.58 86,-300.61"/>
<polygon fill="#555555" stroke="#555555" stroke-width="1.2" points="89.5,-300.72 86,-290.72 82.5,-300.72 89.5,-300.72"/>
</g>
<!-- nats_dcm -->
<g id="node5" class="node">
<title>nats_dcm</title>
<path fill="#e0e0e0" stroke="#999999" stroke-width="1.5" d="M101,-198C101,-198 71,-198 71,-198 65,-198 59,-192 59,-186 59,-186 59,-174 59,-174 59,-168 65,-162 71,-162 71,-162 101,-162 101,-162 107,-162 113,-168 113,-174 113,-174 113,-186 113,-186 113,-192 107,-198 101,-198"/>
<text xml:space="preserve" text-anchor="middle" x="86" y="-175.75" font-family="Helvetica,Arial,sans-serif" font-size="10.00" fill="#151515">NATS</text>
</g>
<!-- spm&#45;&gt;nats_dcm -->
<g id="edge4" class="edge">
<title>spm&#45;&gt;nats_dcm</title>
<path fill="none" stroke="#999999" stroke-width="1.2" stroke-dasharray="5,2" d="M86,-251.81C86,-240.05 86,-224.22 86,-210.51"/>
<polygon fill="#999999" stroke="#999999" stroke-width="1.2" points="89.5,-210.52 86,-200.52 82.5,-210.52 89.5,-210.52"/>
</g>
<!-- acm_sp -->
<g id="node11" class="node">
<title>acm_sp</title>
<path fill="#4169e1" stroke="#2850a8" stroke-width="1.5" d="M224.38,-198C224.38,-198 159.62,-198 159.62,-198 153.62,-198 147.62,-192 147.62,-186 147.62,-186 147.62,-174 147.62,-174 147.62,-168 153.62,-162 159.62,-162 159.62,-162 224.38,-162 224.38,-162 230.38,-162 236.38,-168 236.38,-174 236.38,-174 236.38,-186 236.38,-186 236.38,-192 230.38,-198 224.38,-198"/>
<text xml:space="preserve" text-anchor="middle" x="192" y="-175.75" font-family="Helvetica,Arial,sans-serif" font-size="10.00" fill="white">ACM Cluster SP</text>
</g>
<!-- spm&#45;&gt;acm_sp -->
<g id="edge12" class="edge">
<title>spm&#45;&gt;acm_sp</title>
<path fill="none" stroke="#555555" stroke-width="1.2" d="M107.2,-251.6C114.25,-245.73 122.51,-238.86 131.04,-231.75"/>
<polygon fill="#555555" stroke="#555555" stroke-width="1.2" points="133.16,-234.54 138.61,-225.45 128.68,-229.16 133.16,-234.54"/>
</g>
<!-- kv_sp -->
<g id="node12" class="node">
<title>kv_sp</title>
<path fill="#4169e1" stroke="#2850a8" stroke-width="1.5" d="M338.38,-198C338.38,-198 273.62,-198 273.62,-198 267.62,-198 261.62,-192 261.62,-186 261.62,-186 261.62,-174 261.62,-174 261.62,-168 267.62,-162 273.62,-162 273.62,-162 338.38,-162 338.38,-162 344.38,-162 350.38,-168 350.38,-174 350.38,-174 350.38,-186 350.38,-186 350.38,-192 344.38,-198 338.38,-198"/>
<text xml:space="preserve" text-anchor="middle" x="306" y="-175.75" font-family="Helvetica,Arial,sans-serif" font-size="10.00" fill="white">KubeVirt VM SP</text>
</g>
<!-- spm&#45;&gt;kv_sp -->
<g id="edge13" class="edge">
<title>spm&#45;&gt;kv_sp</title>
<path fill="none" stroke="#555555" stroke-width="1.2" d="M124.27,-259.77C168.82,-248.59 237.78,-230.83 249,-225.25 259.21,-220.17 269.37,-213.1 278.22,-206.11"/>
<polygon fill="#555555" stroke="#555555" stroke-width="1.2" points="280.38,-208.87 285.86,-199.8 275.92,-203.47 280.38,-208.87"/>
</g>
<!-- koku_api -->
<g id="node6" class="node">
<title>koku_api</title>
<path fill="#2e8b57" stroke="#1a6b1a" stroke-width="1.5" d="M272.62,-443C272.62,-443 239.38,-443 239.38,-443 233.38,-443 227.38,-437 227.38,-431 227.38,-431 227.38,-419 227.38,-419 227.38,-413 233.38,-407 239.38,-407 239.38,-407 272.62,-407 272.62,-407 278.62,-407 284.62,-413 284.62,-419 284.62,-419 284.62,-431 284.62,-431 284.62,-437 278.62,-443 272.62,-443"/>
<text xml:space="preserve" text-anchor="middle" x="256" y="-420.75" font-family="Helvetica,Arial,sans-serif" font-size="10.00" fill="white">Koku API</text>
</g>
<!-- masu -->
<g id="node8" class="node">
<title>masu</title>
<path fill="#2e8b57" stroke="#1a6b1a" stroke-width="1.5" d="M284.62,-370C284.62,-370 227.38,-370 227.38,-370 221.38,-370 215.38,-364 215.38,-358 215.38,-358 215.38,-346 215.38,-346 215.38,-340 221.38,-334 227.38,-334 227.38,-334 284.62,-334 284.62,-334 290.62,-334 296.62,-340 296.62,-346 296.62,-346 296.62,-358 296.62,-358 296.62,-364 290.62,-370 284.62,-370"/>
<text xml:space="preserve" text-anchor="middle" x="256" y="-353" font-family="Helvetica,Arial,sans-serif" font-size="10.00" fill="white">Masu + Celery</text>
<text xml:space="preserve" text-anchor="middle" x="256" y="-342.5" font-family="Helvetica,Arial,sans-serif" font-size="10.00" fill="white">Workers</text>
</g>
<!-- koku_api&#45;&gt;masu -->
<g id="edge6" class="edge">
<title>koku_api&#45;&gt;masu</title>
<path fill="none" stroke="#555555" stroke-width="1.2" d="M256,-406.45C256,-399.06 256,-390.25 256,-381.94"/>
<polygon fill="#555555" stroke="#555555" stroke-width="1.2" points="259.5,-382.16 256,-372.16 252.5,-382.16 259.5,-382.16"/>
</g>
<!-- koku_ui -->
<g id="node7" class="node">
<title>koku_ui</title>
<path fill="#2e8b57" stroke="#1a6b1a" stroke-width="1.5" d="M271,-516C271,-516 241,-516 241,-516 235,-516 229,-510 229,-504 229,-504 229,-492 229,-492 229,-486 235,-480 241,-480 241,-480 271,-480 271,-480 277,-480 283,-486 283,-492 283,-492 283,-504 283,-504 283,-510 277,-516 271,-516"/>
<text xml:space="preserve" text-anchor="middle" x="256" y="-493.75" font-family="Helvetica,Arial,sans-serif" font-size="10.00" fill="white">koku&#45;ui</text>
</g>
<!-- koku_ui&#45;&gt;koku_api -->
<g id="edge5" class="edge">
<title>koku_ui&#45;&gt;koku_api</title>
<path fill="none" stroke="#555555" stroke-width="1.2" d="M256,-479.45C256,-472.06 256,-463.25 256,-454.94"/>
<polygon fill="#555555" stroke="#555555" stroke-width="1.2" points="259.5,-455.16 256,-445.16 252.5,-455.16 259.5,-455.16"/>
</g>
<!-- pg_koku -->
<g id="node9" class="node">
<title>pg_koku</title>
<path fill="#e0e0e0" stroke="#999999" stroke-width="1.5" d="M272.62,-288.25C272.62,-288.25 227.38,-288.25 227.38,-288.25 221.38,-288.25 215.38,-282.25 215.38,-276.25 215.38,-276.25 215.38,-264.25 215.38,-264.25 215.38,-258.25 221.38,-252.25 227.38,-252.25 227.38,-252.25 272.62,-252.25 272.62,-252.25 278.62,-252.25 284.62,-258.25 284.62,-264.25 284.62,-264.25 284.62,-276.25 284.62,-276.25 284.62,-282.25 278.62,-288.25 272.62,-288.25"/>
<text xml:space="preserve" text-anchor="middle" x="250" y="-266" font-family="Helvetica,Arial,sans-serif" font-size="10.00" fill="#151515">PostgreSQL</text>
</g>
<!-- masu&#45;&gt;pg_koku -->
<g id="edge7" class="edge">
<title>masu&#45;&gt;pg_koku</title>
<path fill="none" stroke="#999999" stroke-width="1.2" stroke-dasharray="5,2" d="M254.67,-333.3C253.95,-323.7 253.03,-311.58 252.21,-300.61"/>
<polygon fill="#999999" stroke="#999999" stroke-width="1.2" points="255.7,-300.42 251.46,-290.71 248.72,-300.95 255.7,-300.42"/>
</g>
<!-- redis -->
<g id="node10" class="node">
<title>redis</title>
<path fill="#e0e0e0" stroke="#999999" stroke-width="1.5" d="M352,-288.25C352,-288.25 322,-288.25 322,-288.25 316,-288.25 310,-282.25 310,-276.25 310,-276.25 310,-264.25 310,-264.25 310,-258.25 316,-252.25 322,-252.25 322,-252.25 352,-252.25 352,-252.25 358,-252.25 364,-258.25 364,-264.25 364,-264.25 364,-276.25 364,-276.25 364,-282.25 358,-288.25 352,-288.25"/>
<text xml:space="preserve" text-anchor="middle" x="337" y="-266" font-family="Helvetica,Arial,sans-serif" font-size="10.00" fill="#151515">Redis</text>
</g>
<!-- masu&#45;&gt;redis -->
<g id="edge8" class="edge">
<title>masu&#45;&gt;redis</title>
<path fill="none" stroke="#999999" stroke-width="1.2" stroke-dasharray="5,2" d="M273.98,-333.3C284.78,-322.67 298.71,-308.95 310.73,-297.11"/>
<polygon fill="#999999" stroke="#999999" stroke-width="1.2" points="313.11,-299.68 317.78,-290.17 308.2,-294.7 313.11,-299.68"/>
</g>
<!-- clusters -->
<g id="node14" class="node">
<title>clusters</title>
<path fill="#daa520" stroke="#b8860b" stroke-width="1.5" d="M219.75,-125C219.75,-125 184.25,-125 184.25,-125 178.25,-125 172.25,-119 172.25,-113 172.25,-113 172.25,-101 172.25,-101 172.25,-95 178.25,-89 184.25,-89 184.25,-89 219.75,-89 219.75,-89 225.75,-89 231.75,-95 231.75,-101 231.75,-101 231.75,-113 231.75,-113 231.75,-119 225.75,-125 219.75,-125"/>
<text xml:space="preserve" text-anchor="middle" x="202" y="-108" font-family="Helvetica,Arial,sans-serif" font-size="10.00" fill="white">OpenShift</text>
<text xml:space="preserve" text-anchor="middle" x="202" y="-97.5" font-family="Helvetica,Arial,sans-serif" font-size="10.00" fill="white">Clusters</text>
</g>
<!-- acm_sp&#45;&gt;clusters -->
<g id="edge9" class="edge">
<title>acm_sp&#45;&gt;clusters</title>
<path fill="none" stroke="#555555" stroke-width="1.2" d="M194.47,-161.45C195.51,-154.06 196.75,-145.25 197.92,-136.94"/>
<polygon fill="#555555" stroke="#555555" stroke-width="1.2" points="201.37,-137.54 199.3,-127.15 194.44,-136.56 201.37,-137.54"/>
</g>
<!-- vms -->
<g id="node15" class="node">
<title>vms</title>
<path fill="#daa520" stroke="#b8860b" stroke-width="1.5" d="M331.75,-125C331.75,-125 278.25,-125 278.25,-125 272.25,-125 266.25,-119 266.25,-113 266.25,-113 266.25,-101 266.25,-101 266.25,-95 272.25,-89 278.25,-89 278.25,-89 331.75,-89 331.75,-89 337.75,-89 343.75,-95 343.75,-101 343.75,-101 343.75,-113 343.75,-113 343.75,-119 337.75,-125 331.75,-125"/>
<text xml:space="preserve" text-anchor="middle" x="305" y="-102.75" font-family="Helvetica,Arial,sans-serif" font-size="10.00" fill="white">KubeVirt VMs</text>
</g>
<!-- kv_sp&#45;&gt;vms -->
<g id="edge10" class="edge">
<title>kv_sp&#45;&gt;vms</title>
<path fill="none" stroke="#555555" stroke-width="1.2" d="M305.75,-161.45C305.65,-154.06 305.52,-145.25 305.41,-136.94"/>
<polygon fill="#555555" stroke="#555555" stroke-width="1.2" points="308.91,-137.11 305.27,-127.16 301.91,-137.21 308.91,-137.11"/>
</g>
<!-- metrics_op -->
<g id="node13" class="node">
<title>metrics_op</title>
<path fill="#2e8b57" stroke="#1a6b1a" stroke-width="1.5" d="M438.25,-198C438.25,-198 387.75,-198 387.75,-198 381.75,-198 375.75,-192 375.75,-186 375.75,-186 375.75,-174 375.75,-174 375.75,-168 381.75,-162 387.75,-162 387.75,-162 438.25,-162 438.25,-162 444.25,-162 450.25,-168 450.25,-174 450.25,-174 450.25,-186 450.25,-186 450.25,-192 444.25,-198 438.25,-198"/>
<text xml:space="preserve" text-anchor="middle" x="413" y="-181" font-family="Helvetica,Arial,sans-serif" font-size="10.00" fill="white">koku&#45;metrics&#45;</text>
<text xml:space="preserve" text-anchor="middle" x="413" y="-170.5" font-family="Helvetica,Arial,sans-serif" font-size="10.00" fill="white">operator</text>
</g>
<!-- metrics_op&#45;&gt;koku_api -->
<g id="edge14" class="edge">
<title>metrics_op&#45;&gt;koku_api</title>
<path fill="none" stroke="#228b22" stroke-width="1.2" stroke-dasharray="5,2" d="M409.23,-198.53C404.05,-220.47 393.46,-258.75 377,-288.25 352.71,-331.79 312.35,-373.27 284.98,-398.66"/>
<polygon fill="#228b22" stroke="#228b22" stroke-width="1.2" points="282.96,-395.77 277.93,-405.1 287.68,-400.94 282.96,-395.77"/>
<text xml:space="preserve" text-anchor="middle" x="381.61" y="-307.45" font-family="Helvetica,Arial,sans-serif" font-size="9.00" fill="#228b22">uploads</text>
</g>
<!-- prom -->
<g id="node16" class="node">
<title>prom</title>
<path fill="#daa520" stroke="#b8860b" stroke-width="1.5" d="M430.25,-125C430.25,-125 385.75,-125 385.75,-125 379.75,-125 373.75,-119 373.75,-113 373.75,-113 373.75,-101 373.75,-101 373.75,-95 379.75,-89 385.75,-89 385.75,-89 430.25,-89 430.25,-89 436.25,-89 442.25,-95 442.25,-101 442.25,-101 442.25,-113 442.25,-113 442.25,-119 436.25,-125 430.25,-125"/>
<text xml:space="preserve" text-anchor="middle" x="408" y="-108" font-family="Helvetica,Arial,sans-serif" font-size="10.00" fill="white">Prometheus</text>
<text xml:space="preserve" text-anchor="middle" x="408" y="-97.5" font-family="Helvetica,Arial,sans-serif" font-size="10.00" fill="white">Metrics</text>
</g>
<!-- metrics_op&#45;&gt;prom -->
<g id="edge11" class="edge">
<title>metrics_op&#45;&gt;prom</title>
<path fill="none" stroke="#555555" stroke-width="1.2" d="M411.76,-161.45C411.24,-154.06 410.62,-145.25 410.04,-136.94"/>
<polygon fill="#555555" stroke="#555555" stroke-width="1.2" points="413.54,-136.89 409.35,-127.16 406.56,-137.38 413.54,-136.89"/>
</g>
<!-- gap -->
<g id="node17" class="node">
<title>gap</title>
<polygon fill="#ffe0e0" stroke="#cc0000" stroke-width="2" stroke-dasharray="5,2" points="592.12,-52 15.88,-52 15.88,-16 592.12,-16 592.12,-52"/>
<text xml:space="preserve" text-anchor="start" x="23.88" y="-30.18" font-family="Helvetica,Arial,sans-serif" font-weight="bold" font-size="11.00" fill="#cc0000">THE GAP</text>
<text xml:space="preserve" text-anchor="start" x="73.38" y="-30.18" font-family="Helvetica,Arial,sans-serif" font-size="11.00" fill="#cc0000">: No connection between DCM provisioning events and Koku&#39;s cost pipeline. No shared identity for clusters.</text>
</g>
<!-- clusters&#45;&gt;gap -->
<!-- vms&#45;&gt;gap -->
<!-- prom&#45;&gt;gap -->
</g>
</svg>
